<svg width="65" height="56" viewBox="0 0 65 56" fill="none" xmlns="http://www.w3.org/2000/svg">
<mask id="mask0_158_10718" style="mask-type:luminance" maskUnits="userSpaceOnUse" x="9" y="0" width="56" height="48">
<path d="M9.66602 0.21875H64.8483V48H9.66602V0.21875Z" fill="white"/>
</mask>
<g mask="url(#mask0_158_10718)">
<path d="M27.2131 29.8075L21.2027 21.1929C19.2079 18.3387 8.83291 25.5731 10.8225 28.4272L22.01 44.4689C23.9996 47.3231 27.9631 48.0262 30.8173 46.0366C31.6298 45.4689 32.26 44.7397 32.7131 43.9272L32.7183 43.9325C32.7183 43.9325 32.734 43.9012 32.7444 43.8752C32.885 43.6095 33.0152 43.3335 33.1194 43.0522C35.4215 38.0991 47.6142 13.0679 64.6402 0.208496C64.6402 0.208496 43.1975 0.750163 27.2131 29.8075Z" fill="white"/>
</g>
<mask id="mask1_158_10718" style="mask-type:luminance" maskUnits="userSpaceOnUse" x="0" y="4" width="53" height="52">
<path d="M0.583984 4H52.334V55.8021H0.583984V4Z" fill="white"/>
</mask>
<g mask="url(#mask1_158_10718)">
<path d="M46.7773 23.6981C47.4023 25.6981 47.7357 27.8231 47.7357 30.0262C47.7357 41.771 38.1836 51.3231 26.4388 51.3231C14.694 51.3231 5.14193 41.771 5.14193 30.0262C5.14193 18.2814 14.694 8.72933 26.4388 8.72933C30.5898 8.72933 34.4648 9.92724 37.7461 11.9897C39.0482 10.87 40.3138 9.85433 41.4701 8.9637C37.2305 5.92725 32.043 4.13037 26.4388 4.13037C12.1628 4.13037 0.542969 15.745 0.542969 30.0262C0.542969 44.3022 12.1628 55.9168 26.4388 55.9168C40.7148 55.9168 52.3346 44.3022 52.3346 30.0262C52.3346 25.9741 51.3971 22.1408 49.7305 18.7293C48.8503 20.0835 47.8451 21.7397 46.7773 23.6981Z" fill="white"/>
</g>
</svg>
