<svg width="51" height="51" viewBox="0 0 51 51" fill="none" xmlns="http://www.w3.org/2000/svg">
<mask id="mask0_207_12" style="mask-type:luminance" maskUnits="userSpaceOnUse" x="0" y="0" width="51" height="51">
<path d="M0.380859 0.953125H50.3809V50.9531H0.380859V0.953125Z" fill="white"/>
</mask>
<g mask="url(#mask0_207_12)">
<path d="M50.3861 25.9531C50.3861 26.7708 50.3444 27.5885 50.2611 28.401C50.1829 29.2188 50.0632 30.026 49.9017 30.8281C49.7454 31.6354 49.5423 32.4271 49.3079 33.2083C49.0684 33.9948 48.7923 34.7656 48.4798 35.5208C48.1673 36.276 47.8184 37.0156 47.4329 37.7396C47.0475 38.4583 46.6257 39.1615 46.1725 39.8438C45.7142 40.5208 45.2298 41.1771 44.709 41.8125C44.1882 42.4479 43.6413 43.0521 43.0632 43.6302C42.4798 44.2083 41.8757 44.7604 41.2454 45.276C40.61 45.7969 39.9538 46.2865 39.2715 46.7396C38.5944 47.1927 37.8913 47.6146 37.1673 48C36.4486 48.3854 35.709 48.7344 34.9486 49.0521C34.1934 49.3646 33.4225 49.6406 32.6413 49.875C31.8548 50.1146 31.0632 50.3125 30.2611 50.474C29.459 50.6302 28.6465 50.75 27.834 50.8333C27.0215 50.9115 26.2038 50.9531 25.3861 50.9531C24.5632 50.9531 23.7454 50.9115 22.9329 50.8333C22.1204 50.75 21.3079 50.6302 20.5059 50.474C19.7038 50.3125 18.9121 50.1146 18.1257 49.875C17.3444 49.6406 16.5736 49.3646 15.8184 49.0521C15.0579 48.7344 14.3184 48.3854 13.5996 48C12.8757 47.6146 12.1725 47.1927 11.4954 46.7396C10.8132 46.2865 10.1569 45.7969 9.52148 45.276C8.89128 44.7604 8.28711 44.2083 7.70378 43.6302C7.12565 43.0521 6.57878 42.4479 6.05794 41.8125C5.53711 41.1771 5.05273 40.5208 4.5944 39.8438C4.14128 39.1615 3.7194 38.4583 3.33398 37.7396C2.94857 37.0156 2.59961 36.276 2.28711 35.5208C1.97461 34.7656 1.69857 33.9948 1.45898 33.2083C1.22461 32.4271 1.02148 31.6354 0.865234 30.8281C0.703776 30.026 0.583985 29.2188 0.505859 28.401C0.422526 27.5885 0.380859 26.7708 0.380859 25.9531C0.380859 25.1354 0.422526 24.3177 0.505859 23.5C0.583985 22.6875 0.703776 21.8802 0.865234 21.0729C1.02148 20.2708 1.22461 19.4792 1.45898 18.6979C1.69857 17.9115 1.97461 17.1406 2.28711 16.3854C2.59961 15.6302 2.94857 14.8906 3.33398 14.1667C3.7194 13.4479 4.14128 12.7448 4.5944 12.0625C5.05273 11.3802 5.53711 10.724 6.05794 10.0938C6.57878 9.45833 7.12565 8.85417 7.70378 8.27604C8.28711 7.69792 8.89128 7.14583 9.52148 6.625C10.1569 6.10938 10.8132 5.61979 11.4954 5.16667C12.1725 4.70833 12.8757 4.29167 13.5996 3.90625C14.3184 3.52083 15.0579 3.16667 15.8184 2.85417C16.5736 2.54167 17.3444 2.26562 18.1257 2.03125C18.9121 1.79167 19.7038 1.59375 20.5059 1.43229C21.3079 1.27083 22.1204 1.15104 22.9329 1.07292C23.7454 0.994791 24.5632 0.953125 25.3861 0.953125C26.2038 0.953125 27.0215 0.994791 27.834 1.07292C28.6465 1.15104 29.459 1.27083 30.2611 1.43229C31.0632 1.59375 31.8548 1.79167 32.6413 2.03125C33.4225 2.26562 34.1934 2.54167 34.9486 2.85417C35.709 3.16667 36.4486 3.52083 37.1673 3.90625C37.8913 4.29167 38.5944 4.70833 39.2715 5.16667C39.9538 5.61979 40.61 6.10938 41.2454 6.625C41.8757 7.14583 42.4798 7.69792 43.0632 8.27604C43.6413 8.85417 44.1882 9.45833 44.709 10.0938C45.2298 10.724 45.7142 11.3802 46.1725 12.0625C46.6257 12.7448 47.0475 13.4479 47.4329 14.1667C47.8184 14.8906 48.1673 15.6302 48.4798 16.3854C48.7923 17.1406 49.0684 17.9115 49.3079 18.6979C49.5423 19.4792 49.7454 20.2708 49.9017 21.0729C50.0632 21.8802 50.1829 22.6875 50.2611 23.5C50.3444 24.3177 50.3861 25.1354 50.3861 25.9531Z" fill="#1A4789"/>
</g>
<path d="M31.6563 27.2396L32.3646 21.7604H26.9375V18.2604C26.9375 16.6719 27.3802 15.5885 29.6563 15.5885H32.5573V10.6875C32.0521 10.6198 30.3333 10.4688 28.3281 10.4688C24.1406 10.4688 21.2813 13.026 21.2813 17.7188V21.7604H16.5469V27.2396H21.2813V41.3021H26.9375V27.2396H31.6563Z" fill="white"/>
</svg>
