<svg width="117" height="121" viewBox="0 0 117 121" fill="none" xmlns="http://www.w3.org/2000/svg">
<mask id="mask0_114_1569" style="mask-type:luminance" maskUnits="userSpaceOnUse" x="0" y="0" width="117" height="121">
<path d="M0 0H117V121H0V0Z" fill="white"/>
</mask>
<g mask="url(#mask0_114_1569)">
<path fill-rule="evenodd" clip-rule="evenodd" d="M44.0677 7.92725C47.4792 8.70329 50.6823 10.0418 53.5521 11.8647L57.1875 10.0158L60.8854 8.12516L66.7604 14.0002L64.8698 17.7033L63.0208 21.3335C64.8333 24.2085 66.1823 27.4064 66.9583 30.8179L70.8385 32.0783L74.7865 33.3647V41.6668L70.8385 42.9481L66.9583 44.2085C66.1823 47.62 64.8438 50.8179 63.0208 53.6929L64.8698 57.3283L66.7604 61.0262L60.8854 66.9012L57.1875 65.0106L53.5521 63.1616C50.6823 64.9741 47.4792 66.3231 44.0677 67.0991L42.8125 70.9793L41.526 74.9272H33.2344L31.9479 70.9793L30.6927 67.0991C27.2813 66.3231 24.0781 64.9845 21.2083 63.1616L17.5729 65.0106L13.875 66.9012L10.9375 63.9637L8 61.0106L9.88542 57.3127L11.7344 53.6772C9.92708 50.8075 8.57813 47.6043 7.80208 44.1981L3.92188 42.9377L-0.03125 41.6512V33.3647L3.92188 32.0783L7.80208 30.8179C8.57813 27.4064 9.91146 24.2085 11.7344 21.3335L9.88542 17.7033L8 13.9897L13.875 8.11475L17.5729 10.0002L21.2083 11.8491C24.0781 10.0418 27.2813 8.68766 30.6927 7.91683L31.9479 4.03141L33.2344 0.0834961H41.5365L42.8229 4.03141L44.0677 7.92725ZM101.469 34.1877C103.25 34.6981 104.917 35.5002 106.385 36.547L108.365 35.672L110.385 34.7814L111.854 36.4168L113.323 38.0575L112.208 39.9585L111.12 41.8335C112 43.4116 112.615 45.1564 112.932 46.9793L114.953 47.7658L117.01 48.5627L116.891 50.7658L116.776 52.9741L114.635 53.5366L112.536 54.0887C112.026 55.87 111.224 57.5366 110.177 59.0054L111.057 60.9845L111.948 63.0054L110.307 64.4897L108.667 65.9585L106.766 64.8543L104.891 63.7658C103.318 64.646 101.573 65.2606 99.7344 65.5783L98.9479 67.5991L98.151 69.6564L95.9479 69.5366L93.7396 69.422L93.1771 67.2814L92.625 65.1825C90.8438 64.672 89.1771 63.87 87.7083 62.8231L85.7292 63.7033L83.7083 64.5939L80.7708 61.3127L81.8698 59.4116L82.9583 57.5366C82.0833 55.9637 81.4635 54.2189 81.151 52.3804L79.1302 51.5939L77.0729 50.7918L77.1875 48.5887L77.3073 46.3856L79.4427 45.8231L81.5417 45.271C82.0573 43.4897 82.8542 41.8231 83.9062 40.3543L83.026 38.3752L82.1354 36.3543L83.7708 34.8856L85.4115 33.4168L87.3125 34.5314L89.1927 35.62C90.7656 34.7397 92.5104 34.1252 94.3438 33.8075L95.1302 31.7866L95.9323 29.7293L98.1354 29.8491L100.339 29.9637L100.901 32.1043L101.469 34.1877ZM97.4167 43.0835C93.7656 42.8856 90.6615 45.6668 90.4479 49.3127C90.2552 52.9585 93.0312 56.0679 96.6823 56.2762C100.328 56.4741 103.438 53.6929 103.646 50.047C103.844 46.4012 101.062 43.2918 97.4167 43.0835ZM79.7865 73.5522L79.0521 70.7554L78.3021 67.9116L72.4271 67.5991L71.3646 70.3387L70.3177 73.0262C67.875 73.4325 65.5521 74.2606 63.4531 75.4429L60.9479 73.9845L58.4062 72.5002L56.2135 74.4585L54.026 76.4116L55.2188 79.1252L56.3854 81.7762C54.9948 83.7293 53.9062 85.9481 53.2396 88.3335L50.4427 89.0679L47.599 89.8179L47.4427 92.7554L47.2812 95.6929L50.026 96.7554L52.7135 97.7918C53.1198 100.229 53.9479 102.552 55.125 104.651L53.6719 107.156L52.1875 109.703L54.1406 111.891L56.099 114.083L58.7865 112.886L61.4375 111.719C63.3906 113.125 65.6042 114.198 67.9948 114.87L68.7292 117.662L69.474 120.511L72.4167 120.667L75.3542 120.823L76.4167 118.083L77.4531 115.396C79.8906 114.985 82.2135 114.162 84.3125 112.979L86.8177 114.438L89.3594 115.917L91.5521 113.948L93.7396 111.995L92.5469 109.307L91.3802 106.656C92.7708 104.703 93.8594 102.485 94.5312 100.099L97.3229 99.3647L100.167 98.6147L100.328 95.6772L100.484 92.7397L97.7448 91.6772L95.0521 90.6304C94.6458 88.1877 93.8229 85.87 92.6406 83.771L94.0938 81.2658L95.5781 78.7189L93.625 76.5314L91.6719 74.3387L88.9792 75.547L86.3333 76.7137C84.375 75.3075 82.1615 74.2345 79.7865 73.5522ZM74.6823 79.9116C82.5781 80.3439 88.625 87.1148 88.1927 95.0106C87.7604 102.906 81.0052 108.953 73.0938 108.521C65.1979 108.073 59.151 101.318 59.5885 93.422C60.0313 85.5158 66.7865 79.4689 74.6823 79.9116ZM37.3802 17.2814C26.2188 17.2814 17.1562 26.3335 17.1562 37.5054C17.1562 48.6668 26.2031 57.7345 37.3802 57.7345C48.5417 57.7345 57.6042 48.6825 57.6042 37.5054C57.5938 26.3335 48.5417 17.2814 37.3802 17.2814Z" fill="white"/>
</g>
</svg>
