<svg width="51" height="51" viewBox="0 0 51 51" fill="none" xmlns="http://www.w3.org/2000/svg">
<mask id="mask0_114_14228" style="mask-type:luminance" maskUnits="userSpaceOnUse" x="0" y="0" width="51" height="51">
<path d="M0.171875 0.953125H50.1719V50.9531H0.171875V0.953125Z" fill="white"/>
</mask>
<g mask="url(#mask0_114_14228)">
<path d="M45.9954 0.953125H4.37565C2.07357 0.953125 0.224609 2.82813 0.224609 5.10417V46.8021C0.224609 49.099 2.09961 50.9531 4.37565 50.9531H45.9746C48.2715 50.9531 50.1257 49.0781 50.1257 46.8021V5.10417C50.1517 2.82813 48.2975 0.953125 45.9954 0.953125ZM15.0059 42.1979H7.62565V20.0365H15.0059V42.1979ZM11.3027 17.3594C8.97982 17.3594 7.10482 15.4844 7.10482 13.1562C7.10482 10.8333 8.97982 8.95833 11.3027 8.95833C13.6309 8.95833 15.5059 10.8333 15.5059 13.1562C15.5059 15.4844 13.6309 17.3594 11.3027 17.3594ZM42.7715 42.1979H35.3652L35.1934 29.0417C35.1934 29.0417 35.3652 25.5417 31.5423 25.5625C27.7142 25.5885 27.1882 29.0417 27.1882 29.0417V42.1979H19.735V20.0365H26.8861V23.0885C26.8861 23.0885 27.1882 22.0885 28.8392 20.9115C30.4902 19.7344 33.2142 19.4844 34.3913 19.5365C35.5684 19.5885 37.1673 19.3854 39.8444 21.2396C42.7194 23.2135 42.7975 28.3906 42.7975 28.3906L42.7715 42.1979Z" fill="#0277B5"/>
</g>
</svg>
