<svg width="51" height="51" viewBox="0 0 51 51" fill="none" xmlns="http://www.w3.org/2000/svg">
<mask id="mask0_114_14216" style="mask-type:luminance" maskUnits="userSpaceOnUse" x="0" y="0" width="51" height="51">
<path d="M0.875 0.953125H50.875V50.9531H0.875V0.953125Z" fill="white"/>
</mask>
<g mask="url(#mask0_114_14216)">
<path d="M49.5462 25.9584C49.5462 26.7344 49.5097 27.5053 49.4316 28.2761C49.3587 29.0522 49.2441 29.8178 49.0931 30.5782C48.942 31.3386 48.7545 32.0886 48.5306 32.8282C48.3014 33.573 48.041 34.2969 47.7441 35.0157C47.4472 35.7292 47.1191 36.4324 46.7545 37.1146C46.39 37.7969 45.9889 38.4636 45.5618 39.1094C45.1295 39.7501 44.666 40.3751 44.1764 40.974C43.6816 41.573 43.166 42.1459 42.6139 42.6928C42.067 43.2396 41.4941 43.7605 40.8952 44.2553C40.2962 44.7449 39.6764 45.2084 39.0306 45.6355C38.3847 46.0678 37.7233 46.4636 37.0358 46.8334C36.3535 47.198 35.6556 47.5261 34.9368 47.823C34.2233 48.1199 33.4941 48.3803 32.7493 48.6042C32.0098 48.8334 31.2598 49.0209 30.4993 49.1719C29.7389 49.323 28.9733 49.4376 28.2025 49.5105C27.4316 49.5886 26.6556 49.6251 25.8795 49.6251C25.1035 49.6251 24.3327 49.5886 23.5618 49.5105C22.791 49.4376 22.0254 49.323 21.265 49.1719C20.5045 49.0209 19.7545 48.8334 19.0098 48.6042C18.2702 48.3803 17.541 48.1199 16.8223 47.823C16.1087 47.5261 15.4056 47.198 14.7233 46.8334C14.041 46.4636 13.3743 46.0678 12.7337 45.6355C12.0879 45.2084 11.4681 44.7449 10.8691 44.2553C10.2702 43.7605 9.69205 43.2396 9.14518 42.6928C8.59831 42.1459 8.07747 41.573 7.58789 40.974C7.0931 40.3751 6.63476 39.7501 6.20247 39.1094C5.77018 38.4636 5.37435 37.7969 5.00976 37.1146C4.64518 36.4324 4.31185 35.7292 4.01497 35.0157C3.7181 34.2969 3.45768 33.573 3.23372 32.8282C3.00976 32.0886 2.82227 31.3386 2.67122 30.5782C2.52018 29.8178 2.4056 29.0522 2.32747 28.2761C2.25456 27.5053 2.21289 26.7344 2.21289 25.9584C2.21289 25.1824 2.25456 24.4115 2.32747 23.6407C2.4056 22.8699 2.52018 22.1042 2.67122 21.3438C2.82227 20.5834 3.00976 19.8282 3.23372 19.0886C3.45768 18.349 3.7181 17.6199 4.01497 16.9011C4.31185 16.1876 4.64518 15.4844 5.00976 14.8022C5.37435 14.1199 5.77018 13.4532 6.20247 12.8126C6.63476 12.1667 7.0931 11.5417 7.58789 10.9428C8.07747 10.3438 8.59831 9.77091 9.14518 9.22404C9.69205 8.67716 10.2702 8.15633 10.8691 7.66154C11.4681 7.17195 12.0879 6.70841 12.7337 6.28133C13.3743 5.84904 14.041 5.45321 14.7233 5.08862C15.4056 4.71883 16.1087 4.39071 16.8223 4.09383C17.541 3.79696 18.2702 3.53654 19.0098 3.31258C19.7545 3.08342 20.5045 2.89591 21.265 2.74487C22.0254 2.59383 22.791 2.47925 23.5618 2.40633C24.3327 2.32821 25.1035 2.29175 25.8795 2.29175C26.6556 2.29175 27.4316 2.32821 28.2025 2.40633C28.9733 2.47925 29.7389 2.59383 30.4993 2.74487C31.2598 2.89591 32.0098 3.08342 32.7493 3.31258C33.4941 3.53654 34.2233 3.79696 34.9368 4.09383C35.6556 4.39071 36.3535 4.71883 37.0358 5.08862C37.7233 5.45321 38.3847 5.84904 39.0306 6.28133C39.6764 6.70841 40.2962 7.17195 40.8952 7.66154C41.4941 8.15633 42.067 8.67716 42.6139 9.22404C43.166 9.77091 43.6816 10.3438 44.1764 10.9428C44.666 11.5417 45.1295 12.1667 45.5618 12.8126C45.9889 13.4532 46.39 14.1199 46.7545 14.8022C47.1191 15.4844 47.4472 16.1876 47.7441 16.9011C48.041 17.6199 48.3014 18.349 48.5306 19.0886C48.7545 19.8282 48.942 20.5834 49.0931 21.3438C49.2441 22.1042 49.3587 22.8699 49.4316 23.6407C49.5097 24.4115 49.5462 25.1824 49.5462 25.9584Z" stroke="url(#paint0_linear_114_14216)" stroke-width="2.6688" stroke-linecap="round" stroke-linejoin="round"/>
</g>
<defs>
<linearGradient id="paint0_linear_114_14216" x1="51.2408" y1="1.28741" x2="3.98919" y2="53.7525" gradientUnits="userSpaceOnUse">
<stop stop-color="#FEC224"/>
<stop offset="0.125" stop-color="#FEC224"/>
<stop offset="0.15625" stop-color="#FEC224"/>
<stop offset="0.164062" stop-color="#FEC224"/>
<stop offset="0.167969" stop-color="#FEC125"/>
<stop offset="0.171875" stop-color="#FEC025"/>
<stop offset="0.175781" stop-color="#FEBE27"/>
<stop offset="0.179688" stop-color="#FEBC28"/>
<stop offset="0.183594" stop-color="#FEBA29"/>
<stop offset="0.1875" stop-color="#FEB82A"/>
<stop offset="0.191406" stop-color="#FEB62B"/>
<stop offset="0.195312" stop-color="#FEB42C"/>
<stop offset="0.199219" stop-color="#FEB22D"/>
<stop offset="0.203125" stop-color="#FEB02E"/>
<stop offset="0.207031" stop-color="#FEAE30"/>
<stop offset="0.210938" stop-color="#FEAD31"/>
<stop offset="0.214844" stop-color="#FEAB32"/>
<stop offset="0.21875" stop-color="#FEA933"/>
<stop offset="0.222656" stop-color="#FDA734"/>
<stop offset="0.226562" stop-color="#FDA535"/>
<stop offset="0.230469" stop-color="#FDA336"/>
<stop offset="0.234375" stop-color="#FDA137"/>
<stop offset="0.238281" stop-color="#FD9F39"/>
<stop offset="0.242188" stop-color="#FD9D3A"/>
<stop offset="0.246094" stop-color="#FD9B3B"/>
<stop offset="0.25" stop-color="#FD9A3C"/>
<stop offset="0.253906" stop-color="#FD983D"/>
<stop offset="0.257812" stop-color="#FD963E"/>
<stop offset="0.261719" stop-color="#FD943F"/>
<stop offset="0.265625" stop-color="#FD9240"/>
<stop offset="0.269531" stop-color="#FD9042"/>
<stop offset="0.273438" stop-color="#FD8E43"/>
<stop offset="0.277344" stop-color="#FD8C44"/>
<stop offset="0.28125" stop-color="#FD8A45"/>
<stop offset="0.285156" stop-color="#FD8846"/>
<stop offset="0.289062" stop-color="#FD8747"/>
<stop offset="0.292969" stop-color="#FD8548"/>
<stop offset="0.296875" stop-color="#FD834A"/>
<stop offset="0.300781" stop-color="#FD814B"/>
<stop offset="0.304688" stop-color="#FD7F4C"/>
<stop offset="0.308594" stop-color="#FD7D4D"/>
<stop offset="0.3125" stop-color="#FD7B4E"/>
<stop offset="0.316406" stop-color="#FD794F"/>
<stop offset="0.320312" stop-color="#FD7750"/>
<stop offset="0.324219" stop-color="#FD7551"/>
<stop offset="0.328125" stop-color="#FC7353"/>
<stop offset="0.332031" stop-color="#FC7254"/>
<stop offset="0.335938" stop-color="#FC7055"/>
<stop offset="0.339844" stop-color="#FC6E56"/>
<stop offset="0.34375" stop-color="#FC6C57"/>
<stop offset="0.347656" stop-color="#FC6A58"/>
<stop offset="0.351562" stop-color="#FC6859"/>
<stop offset="0.355469" stop-color="#FC665A"/>
<stop offset="0.359375" stop-color="#FC645C"/>
<stop offset="0.363281" stop-color="#FC625D"/>
<stop offset="0.367188" stop-color="#FC605E"/>
<stop offset="0.371094" stop-color="#FC5F5F"/>
<stop offset="0.375" stop-color="#FC5D60"/>
<stop offset="0.378906" stop-color="#FC5B61"/>
<stop offset="0.382812" stop-color="#FC5962"/>
<stop offset="0.386719" stop-color="#FC5763"/>
<stop offset="0.390625" stop-color="#FC5565"/>
<stop offset="0.394531" stop-color="#FC5366"/>
<stop offset="0.398438" stop-color="#FC5167"/>
<stop offset="0.402344" stop-color="#FC4F68"/>
<stop offset="0.40625" stop-color="#FC4D69"/>
<stop offset="0.410156" stop-color="#FC4B6A"/>
<stop offset="0.414062" stop-color="#FC4A6B"/>
<stop offset="0.417969" stop-color="#FC486C"/>
<stop offset="0.421875" stop-color="#FC466E"/>
<stop offset="0.425781" stop-color="#FC446F"/>
<stop offset="0.429688" stop-color="#FC4270"/>
<stop offset="0.433594" stop-color="#FC4071"/>
<stop offset="0.4375" stop-color="#FB3E72"/>
<stop offset="0.441406" stop-color="#FB3C73"/>
<stop offset="0.445312" stop-color="#FB3A74"/>
<stop offset="0.449219" stop-color="#FB3876"/>
<stop offset="0.453125" stop-color="#FB3777"/>
<stop offset="0.457031" stop-color="#FB3578"/>
<stop offset="0.460938" stop-color="#FB3379"/>
<stop offset="0.464844" stop-color="#FB317A"/>
<stop offset="0.46875" stop-color="#FB2F7B"/>
<stop offset="0.472656" stop-color="#FB2D7C"/>
<stop offset="0.476562" stop-color="#FB2B7D"/>
<stop offset="0.480469" stop-color="#FB297F"/>
<stop offset="0.484375" stop-color="#FB2780"/>
<stop offset="0.488281" stop-color="#FB2581"/>
<stop offset="0.492188" stop-color="#FB2382"/>
<stop offset="0.496094" stop-color="#FB2283"/>
<stop offset="0.5" stop-color="#FB2084"/>
<stop offset="0.503906" stop-color="#FA1F85"/>
<stop offset="0.507812" stop-color="#F91F86"/>
<stop offset="0.511719" stop-color="#F71F87"/>
<stop offset="0.515625" stop-color="#F61E88"/>
<stop offset="0.519531" stop-color="#F51E89"/>
<stop offset="0.523438" stop-color="#F41E8A"/>
<stop offset="0.527344" stop-color="#F31D8B"/>
<stop offset="0.53125" stop-color="#F21D8C"/>
<stop offset="0.535156" stop-color="#F01D8D"/>
<stop offset="0.539062" stop-color="#EF1C8E"/>
<stop offset="0.542969" stop-color="#EE1C8F"/>
<stop offset="0.546875" stop-color="#ED1C90"/>
<stop offset="0.550781" stop-color="#EC1B90"/>
<stop offset="0.554688" stop-color="#EB1B91"/>
<stop offset="0.558594" stop-color="#EA1B92"/>
<stop offset="0.5625" stop-color="#E81A93"/>
<stop offset="0.566406" stop-color="#E71A94"/>
<stop offset="0.570312" stop-color="#E61A95"/>
<stop offset="0.574219" stop-color="#E51996"/>
<stop offset="0.578125" stop-color="#E41997"/>
<stop offset="0.582031" stop-color="#E31998"/>
<stop offset="0.585938" stop-color="#E21899"/>
<stop offset="0.589844" stop-color="#E0189A"/>
<stop offset="0.59375" stop-color="#DF189B"/>
<stop offset="0.597656" stop-color="#DE179C"/>
<stop offset="0.601562" stop-color="#DD179D"/>
<stop offset="0.605469" stop-color="#DC179E"/>
<stop offset="0.609375" stop-color="#DB169F"/>
<stop offset="0.613281" stop-color="#DA16A0"/>
<stop offset="0.617188" stop-color="#D816A1"/>
<stop offset="0.621094" stop-color="#D715A1"/>
<stop offset="0.625" stop-color="#D615A2"/>
<stop offset="0.628906" stop-color="#D515A3"/>
<stop offset="0.632812" stop-color="#D414A4"/>
<stop offset="0.636719" stop-color="#D314A5"/>
<stop offset="0.640625" stop-color="#D214A6"/>
<stop offset="0.644531" stop-color="#D013A7"/>
<stop offset="0.648438" stop-color="#CF13A8"/>
<stop offset="0.652344" stop-color="#CE13A9"/>
<stop offset="0.65625" stop-color="#CD12AA"/>
<stop offset="0.660156" stop-color="#CC12AB"/>
<stop offset="0.664063" stop-color="#CB12AC"/>
<stop offset="0.667969" stop-color="#C911AD"/>
<stop offset="0.671875" stop-color="#C811AE"/>
<stop offset="0.675781" stop-color="#C710AF"/>
<stop offset="0.679688" stop-color="#C610B0"/>
<stop offset="0.683594" stop-color="#C510B1"/>
<stop offset="0.6875" stop-color="#C40FB2"/>
<stop offset="0.691406" stop-color="#C30FB2"/>
<stop offset="0.695312" stop-color="#C10FB3"/>
<stop offset="0.699219" stop-color="#C00EB4"/>
<stop offset="0.703125" stop-color="#BF0EB5"/>
<stop offset="0.707031" stop-color="#BE0EB6"/>
<stop offset="0.710938" stop-color="#BD0DB7"/>
<stop offset="0.714844" stop-color="#BC0DB8"/>
<stop offset="0.71875" stop-color="#BB0DB9"/>
<stop offset="0.722656" stop-color="#B90CBA"/>
<stop offset="0.726562" stop-color="#B80CBB"/>
<stop offset="0.730469" stop-color="#B70CBC"/>
<stop offset="0.734375" stop-color="#B60BBD"/>
<stop offset="0.738281" stop-color="#B50BBE"/>
<stop offset="0.742188" stop-color="#B40BBF"/>
<stop offset="0.746094" stop-color="#B30AC0"/>
<stop offset="0.75" stop-color="#B10AC1"/>
<stop offset="0.753906" stop-color="#B00AC2"/>
<stop offset="0.757812" stop-color="#AF09C3"/>
<stop offset="0.761719" stop-color="#AE09C3"/>
<stop offset="0.765625" stop-color="#AD09C4"/>
<stop offset="0.769531" stop-color="#AC08C5"/>
<stop offset="0.773438" stop-color="#AB08C6"/>
<stop offset="0.777344" stop-color="#A908C7"/>
<stop offset="0.78125" stop-color="#A807C8"/>
<stop offset="0.785156" stop-color="#A707C9"/>
<stop offset="0.789062" stop-color="#A607CA"/>
<stop offset="0.792969" stop-color="#A506CB"/>
<stop offset="0.796875" stop-color="#A406CC"/>
<stop offset="0.800781" stop-color="#A206CD"/>
<stop offset="0.804688" stop-color="#A105CE"/>
<stop offset="0.808594" stop-color="#A005CF"/>
<stop offset="0.8125" stop-color="#9F05D0"/>
<stop offset="0.816406" stop-color="#9E04D1"/>
<stop offset="0.820312" stop-color="#9D04D2"/>
<stop offset="0.824219" stop-color="#9C04D3"/>
<stop offset="0.828125" stop-color="#9A03D4"/>
<stop offset="0.84375" stop-color="#9A03D4"/>
<stop offset="0.875" stop-color="#9A03D4"/>
<stop offset="1" stop-color="#9A03D4"/>
</linearGradient>
</defs>
</svg>
