<svg width="51" height="51" viewBox="0 0 51 51" fill="none" xmlns="http://www.w3.org/2000/svg">
<mask id="mask0_207_11" style="mask-type:luminance" maskUnits="userSpaceOnUse" x="1" y="2" width="50" height="48">
<path d="M1.33398 2H50.6673V50H1.33398V2Z" fill="white"/>
</mask>
<g mask="url(#mask0_207_11)">
<mask id="mask1_207_11" style="mask-type:luminance" maskUnits="userSpaceOnUse" x="2" y="2" width="48" height="48">
<path d="M49.5482 25.9584C49.5482 26.7345 49.5117 27.5053 49.4336 28.2761C49.3607 29.0522 49.2461 29.8178 49.0951 30.5782C48.944 31.3386 48.7565 32.0886 48.5326 32.8282C48.3034 33.573 48.043 34.297 47.7461 35.0157C47.4492 35.7292 47.1211 36.4324 46.7565 37.1147C46.3919 37.797 45.9909 38.4636 45.5638 39.1095C45.1315 39.7501 44.668 40.3751 44.1784 40.974C43.6836 41.573 43.168 42.1459 42.6159 42.6928C42.069 43.2397 41.4961 43.7605 40.8971 44.2553C40.2982 44.7449 39.6784 45.2084 39.0326 45.6355C38.3867 46.0678 37.7253 46.4636 37.0378 46.8334C36.3555 47.198 35.6576 47.5261 34.9388 47.823C34.2253 48.1199 33.4961 48.3803 32.7513 48.6042C32.0117 48.8334 31.2617 49.0209 30.5013 49.172C29.7409 49.323 28.9753 49.4376 28.2044 49.5105C27.4336 49.5886 26.6576 49.6251 25.8815 49.6251C25.1055 49.6251 24.3346 49.5886 23.5638 49.5105C22.793 49.4376 22.0273 49.323 21.2669 49.172C20.5065 49.0209 19.7565 48.8334 19.0117 48.6042C18.2721 48.3803 17.543 48.1199 16.8242 47.823C16.1107 47.5261 15.4076 47.198 14.7253 46.8334C14.043 46.4636 13.3763 46.0678 12.7357 45.6355C12.0898 45.2084 11.4701 44.7449 10.8711 44.2553C10.2721 43.7605 9.69401 43.2397 9.14714 42.6928C8.60026 42.1459 8.07943 41.573 7.58984 40.974C7.09505 40.3751 6.63672 39.7501 6.20443 39.1095C5.77214 38.4636 5.3763 37.797 5.01172 37.1147C4.64714 36.4324 4.3138 35.7292 4.01693 35.0157C3.72005 34.297 3.45964 33.573 3.23568 32.8282C3.01172 32.0886 2.82422 31.3386 2.67318 30.5782C2.52214 29.8178 2.40755 29.0522 2.32943 28.2761C2.25651 27.5053 2.21484 26.7345 2.21484 25.9584C2.21484 25.1824 2.25651 24.4115 2.32943 23.6407C2.40755 22.8699 2.52214 22.1042 2.67318 21.3438C2.82422 20.5834 3.01172 19.8282 3.23568 19.0886C3.45964 18.349 3.72005 17.6199 4.01693 16.9011C4.3138 16.1876 4.64714 15.4845 5.01172 14.8022C5.3763 14.1199 5.77214 13.4532 6.20443 12.8126C6.63672 12.1667 7.09505 11.5417 7.58984 10.9428C8.07943 10.3438 8.60026 9.77091 9.14714 9.22404C9.69401 8.67716 10.2721 8.15633 10.8711 7.66154C11.4701 7.17196 12.0898 6.70841 12.7357 6.28133C13.3763 5.84904 14.043 5.45321 14.7253 5.08862C15.4076 4.71883 16.1107 4.39071 16.8242 4.09383C17.543 3.79696 18.2721 3.53654 19.0117 3.31258C19.7565 3.08341 20.5065 2.89591 21.2669 2.74487C22.0273 2.59383 22.793 2.47925 23.5638 2.40633C24.3346 2.32821 25.1055 2.29175 25.8815 2.29175C26.6576 2.29175 27.4336 2.32821 28.2044 2.40633C28.9753 2.47925 29.7409 2.59383 30.5013 2.74487C31.2617 2.89591 32.0117 3.08341 32.7513 3.31258C33.4961 3.53654 34.2253 3.79696 34.9388 4.09383C35.6576 4.39071 36.3555 4.71883 37.0378 5.08862C37.7253 5.45321 38.3867 5.84904 39.0326 6.28133C39.6784 6.70841 40.2982 7.17196 40.8971 7.66154C41.4961 8.15633 42.069 8.67716 42.6159 9.22404C43.168 9.77091 43.6836 10.3438 44.1784 10.9428C44.668 11.5417 45.1315 12.1667 45.5638 12.8126C45.9909 13.4532 46.3919 14.1199 46.7565 14.8022C47.1211 15.4845 47.4492 16.1876 47.7461 16.9011C48.043 17.6199 48.3034 18.349 48.5326 19.0886C48.7565 19.8282 48.944 20.5834 49.0951 21.3438C49.2461 22.1042 49.3607 22.8699 49.4336 23.6407C49.5117 24.4115 49.5482 25.1824 49.5482 25.9584Z" fill="white"/>
</mask>
<g mask="url(#mask1_207_11)">
<path d="M2.21484 2.29175V49.6251H49.5482V2.29175H2.21484Z" fill="url(#paint0_linear_207_11)"/>
</g>
</g>
<mask id="mask2_207_11" style="mask-type:luminance" maskUnits="userSpaceOnUse" x="0" y="0" width="51" height="51">
<path d="M0.875 0.953125H50.875V50.9531H0.875V0.953125Z" fill="white"/>
</mask>
<g mask="url(#mask2_207_11)">
<path d="M49.5462 25.9584C49.5462 26.7344 49.5097 27.5053 49.4316 28.2761C49.3587 29.0522 49.2441 29.8178 49.0931 30.5782C48.942 31.3386 48.7545 32.0886 48.5306 32.8282C48.3014 33.573 48.041 34.2969 47.7441 35.0157C47.4472 35.7292 47.1191 36.4324 46.7545 37.1146C46.39 37.7969 45.9889 38.4636 45.5618 39.1094C45.1295 39.7501 44.666 40.3751 44.1764 40.974C43.6816 41.573 43.166 42.1459 42.6139 42.6928C42.067 43.2396 41.4941 43.7605 40.8952 44.2553C40.2962 44.7449 39.6764 45.2084 39.0306 45.6355C38.3847 46.0678 37.7233 46.4636 37.0358 46.8334C36.3535 47.198 35.6556 47.5261 34.9368 47.823C34.2233 48.1199 33.4941 48.3803 32.7493 48.6042C32.0098 48.8334 31.2598 49.0209 30.4993 49.1719C29.7389 49.323 28.9733 49.4376 28.2025 49.5105C27.4316 49.5886 26.6556 49.6251 25.8795 49.6251C25.1035 49.6251 24.3327 49.5886 23.5618 49.5105C22.791 49.4376 22.0254 49.323 21.265 49.1719C20.5045 49.0209 19.7545 48.8334 19.0098 48.6042C18.2702 48.3803 17.541 48.1199 16.8223 47.823C16.1087 47.5261 15.4056 47.198 14.7233 46.8334C14.041 46.4636 13.3743 46.0678 12.7337 45.6355C12.0879 45.2084 11.4681 44.7449 10.8691 44.2553C10.2702 43.7605 9.69205 43.2396 9.14518 42.6928C8.59831 42.1459 8.07747 41.573 7.58789 40.974C7.0931 40.3751 6.63476 39.7501 6.20247 39.1094C5.77018 38.4636 5.37435 37.7969 5.00976 37.1146C4.64518 36.4324 4.31185 35.7292 4.01497 35.0157C3.7181 34.2969 3.45768 33.573 3.23372 32.8282C3.00976 32.0886 2.82227 31.3386 2.67122 30.5782C2.52018 29.8178 2.4056 29.0522 2.32747 28.2761C2.25456 27.5053 2.21289 26.7344 2.21289 25.9584C2.21289 25.1824 2.25456 24.4115 2.32747 23.6407C2.4056 22.8699 2.52018 22.1042 2.67122 21.3438C2.82227 20.5834 3.00976 19.8282 3.23372 19.0886C3.45768 18.349 3.7181 17.6199 4.01497 16.9011C4.31185 16.1876 4.64518 15.4844 5.00976 14.8022C5.37435 14.1199 5.77018 13.4532 6.20247 12.8126C6.63476 12.1667 7.0931 11.5417 7.58789 10.9428C8.07747 10.3438 8.59831 9.77091 9.14518 9.22404C9.69205 8.67716 10.2702 8.15633 10.8691 7.66154C11.4681 7.17195 12.0879 6.70841 12.7337 6.28133C13.3743 5.84904 14.041 5.45321 14.7233 5.08862C15.4056 4.71883 16.1087 4.39071 16.8223 4.09383C17.541 3.79696 18.2702 3.53654 19.0098 3.31258C19.7545 3.08342 20.5045 2.89591 21.265 2.74487C22.0254 2.59383 22.791 2.47925 23.5618 2.40633C24.3327 2.32821 25.1035 2.29175 25.8795 2.29175C26.6556 2.29175 27.4316 2.32821 28.2025 2.40633C28.9733 2.47925 29.7389 2.59383 30.4993 2.74487C31.2598 2.89591 32.0098 3.08342 32.7493 3.31258C33.4941 3.53654 34.2233 3.79696 34.9368 4.09383C35.6556 4.39071 36.3535 4.71883 37.0358 5.08862C37.7233 5.45321 38.3847 5.84904 39.0306 6.28133C39.6764 6.70841 40.2962 7.17195 40.8952 7.66154C41.4941 8.15633 42.067 8.67716 42.6139 9.22404C43.166 9.77091 43.6816 10.3438 44.1764 10.9428C44.666 11.5417 45.1295 12.1667 45.5618 12.8126C45.9889 13.4532 46.39 14.1199 46.7545 14.8022C47.1191 15.4844 47.4472 16.1876 47.7441 16.9011C48.041 17.6199 48.3014 18.349 48.5306 19.0886C48.7545 19.8282 48.942 20.5834 49.0931 21.3438C49.2441 22.1042 49.3587 22.8699 49.4316 23.6407C49.5097 24.4115 49.5462 25.1824 49.5462 25.9584Z" stroke="url(#paint1_linear_207_11)" stroke-width="2.6688" stroke-linecap="round" stroke-linejoin="round"/>
</g>
<path d="M36.4432 36.4999C37.7349 36.2812 38.787 35.2812 39.0474 34.0312C39.1151 33.703 39.1203 32.8385 39.1099 27.6197L39.0942 21.5833L38.9745 21.2499C38.5995 20.2135 37.787 19.4426 36.7661 19.1562C36.5161 19.0833 36.1359 19.0624 34.8078 19.0416L33.162 19.0103L32.3599 17.7916C31.8442 17.0103 31.4432 16.4635 31.2557 16.276C30.9067 15.9374 30.4067 15.6405 29.9224 15.4895C29.589 15.3853 29.464 15.3801 25.8807 15.3801C22.2974 15.3801 22.1724 15.3853 21.8442 15.4895C21.3599 15.6405 20.8547 15.9374 20.5109 16.276C20.3182 16.4635 19.9172 17.0103 19.4067 17.7916L18.6047 19.0103L16.9536 19.0416C15.1255 19.0676 14.9745 19.0937 14.3234 19.427C13.8911 19.651 13.3026 20.2135 13.0734 20.6301C12.9849 20.7864 12.8547 21.0624 12.7922 21.2499L12.6672 21.5833L12.6567 27.6197C12.6411 32.8385 12.6515 33.703 12.7192 34.0312C12.9432 35.1197 13.787 36.0364 14.8911 36.4062L15.2557 36.526L25.7245 36.5364C31.4849 36.5364 36.3078 36.5208 36.4432 36.4999ZM24.7713 33.8593C23.9536 33.7343 23.063 33.4218 22.3442 33.0051C21.7088 32.6405 21.2974 32.3176 20.7609 31.7603C19.0213 29.9687 18.3651 27.4947 18.9797 25.0728C19.5526 22.8176 21.2661 20.927 23.4536 20.1405C25.0422 19.5676 26.912 19.5885 28.4432 20.1874C30.8859 21.1458 32.5786 23.2655 32.9432 25.8228C33.2505 27.9635 32.5474 30.1614 31.0526 31.7135C29.3911 33.4426 27.1307 34.2135 24.7713 33.8593ZM26.8651 30.6614C28.6411 30.1874 29.8286 28.6614 29.8286 26.8593C29.8286 26.177 29.7349 25.7447 29.4588 25.1562C28.5161 23.1562 26.1047 22.3228 24.0995 23.3124C22.7557 23.9739 21.9328 25.2968 21.938 26.8072C21.938 27.4947 22.0317 27.9374 22.313 28.5208C22.7974 29.5155 23.6411 30.2551 24.6828 30.5937C25.2453 30.776 26.3026 30.8072 26.8651 30.6614ZM15.8338 23.401C15.3234 23.1458 15.1932 22.427 15.5734 21.9739C15.7974 21.7083 15.964 21.651 16.6463 21.6249C17.4745 21.5885 17.8234 21.6614 18.0786 21.9166C18.2557 22.0937 18.3859 22.3853 18.3807 22.6197C18.3807 22.776 18.2088 23.1197 18.0578 23.2551C17.8182 23.4791 17.589 23.526 16.7817 23.5103C16.1724 23.4999 15.9953 23.4791 15.8338 23.401Z" fill="white"/>
<defs>
<linearGradient id="paint0_linear_207_11" x1="5.78497" y1="52.5222" x2="47.7436" y2="0.825658" gradientUnits="userSpaceOnUse">
<stop stop-color="#FEC224"/>
<stop offset="0.125" stop-color="#FEC224"/>
<stop offset="0.140625" stop-color="#FEC224"/>
<stop offset="0.148438" stop-color="#FEC224"/>
<stop offset="0.152344" stop-color="#FEC125"/>
<stop offset="0.15625" stop-color="#FEBF26"/>
<stop offset="0.160156" stop-color="#FEBE27"/>
<stop offset="0.164063" stop-color="#FEBC28"/>
<stop offset="0.167969" stop-color="#FEBA28"/>
<stop offset="0.171875" stop-color="#FEB929"/>
<stop offset="0.175781" stop-color="#FEB72A"/>
<stop offset="0.179688" stop-color="#FEB62B"/>
<stop offset="0.183594" stop-color="#FEB42C"/>
<stop offset="0.1875" stop-color="#FEB32D"/>
<stop offset="0.191406" stop-color="#FEB12E"/>
<stop offset="0.195313" stop-color="#FEAF2F"/>
<stop offset="0.199219" stop-color="#FEAE30"/>
<stop offset="0.203125" stop-color="#FEAC31"/>
<stop offset="0.207031" stop-color="#FEAB32"/>
<stop offset="0.210938" stop-color="#FEA933"/>
<stop offset="0.214844" stop-color="#FDA834"/>
<stop offset="0.21875" stop-color="#FDA635"/>
<stop offset="0.222656" stop-color="#FDA436"/>
<stop offset="0.226562" stop-color="#FDA336"/>
<stop offset="0.230469" stop-color="#FDA137"/>
<stop offset="0.234375" stop-color="#FDA038"/>
<stop offset="0.238281" stop-color="#FD9E39"/>
<stop offset="0.242188" stop-color="#FD9D3A"/>
<stop offset="0.246094" stop-color="#FD9B3B"/>
<stop offset="0.25" stop-color="#FD993C"/>
<stop offset="0.253906" stop-color="#FD983D"/>
<stop offset="0.257813" stop-color="#FD963E"/>
<stop offset="0.261719" stop-color="#FD953F"/>
<stop offset="0.265625" stop-color="#FD9340"/>
<stop offset="0.269531" stop-color="#FD9241"/>
<stop offset="0.273438" stop-color="#FD9042"/>
<stop offset="0.277344" stop-color="#FD8E43"/>
<stop offset="0.28125" stop-color="#FD8D44"/>
<stop offset="0.285156" stop-color="#FD8B44"/>
<stop offset="0.289062" stop-color="#FD8A45"/>
<stop offset="0.292969" stop-color="#FD8846"/>
<stop offset="0.296875" stop-color="#FD8747"/>
<stop offset="0.300781" stop-color="#FD8548"/>
<stop offset="0.304688" stop-color="#FD8349"/>
<stop offset="0.308594" stop-color="#FD824A"/>
<stop offset="0.3125" stop-color="#FD804B"/>
<stop offset="0.316406" stop-color="#FD7F4C"/>
<stop offset="0.320312" stop-color="#FD7D4D"/>
<stop offset="0.324219" stop-color="#FD7C4E"/>
<stop offset="0.328125" stop-color="#FD7A4F"/>
<stop offset="0.332031" stop-color="#FD7850"/>
<stop offset="0.335938" stop-color="#FD7751"/>
<stop offset="0.339844" stop-color="#FD7552"/>
<stop offset="0.34375" stop-color="#FC7452"/>
<stop offset="0.347656" stop-color="#FC7253"/>
<stop offset="0.351563" stop-color="#FC7054"/>
<stop offset="0.355469" stop-color="#FC6F55"/>
<stop offset="0.359375" stop-color="#FC6D56"/>
<stop offset="0.363281" stop-color="#FC6C57"/>
<stop offset="0.367188" stop-color="#FC6A58"/>
<stop offset="0.371094" stop-color="#FC6959"/>
<stop offset="0.375" stop-color="#FC675A"/>
<stop offset="0.378906" stop-color="#FC655B"/>
<stop offset="0.382812" stop-color="#FC645C"/>
<stop offset="0.386719" stop-color="#FC625D"/>
<stop offset="0.390625" stop-color="#FC615E"/>
<stop offset="0.394531" stop-color="#FC5F5F"/>
<stop offset="0.398438" stop-color="#FC5E5F"/>
<stop offset="0.402344" stop-color="#FC5C60"/>
<stop offset="0.40625" stop-color="#FC5A61"/>
<stop offset="0.410156" stop-color="#FC5962"/>
<stop offset="0.414062" stop-color="#FC5763"/>
<stop offset="0.417969" stop-color="#FC5664"/>
<stop offset="0.421875" stop-color="#FC5465"/>
<stop offset="0.425781" stop-color="#FC5366"/>
<stop offset="0.429688" stop-color="#FC5167"/>
<stop offset="0.433594" stop-color="#FC4F68"/>
<stop offset="0.4375" stop-color="#FC4E69"/>
<stop offset="0.441406" stop-color="#FC4C6A"/>
<stop offset="0.445313" stop-color="#FC4B6B"/>
<stop offset="0.449219" stop-color="#FC496C"/>
<stop offset="0.453125" stop-color="#FC486D"/>
<stop offset="0.457031" stop-color="#FC466D"/>
<stop offset="0.460938" stop-color="#FC446E"/>
<stop offset="0.464844" stop-color="#FC436F"/>
<stop offset="0.46875" stop-color="#FC4170"/>
<stop offset="0.472656" stop-color="#FC4071"/>
<stop offset="0.476562" stop-color="#FB3E72"/>
<stop offset="0.480469" stop-color="#FB3D73"/>
<stop offset="0.484375" stop-color="#FB3B74"/>
<stop offset="0.488281" stop-color="#FB3975"/>
<stop offset="0.492188" stop-color="#FB3876"/>
<stop offset="0.496094" stop-color="#FB3677"/>
<stop offset="0.5" stop-color="#FB3578"/>
<stop offset="0.503906" stop-color="#FB3379"/>
<stop offset="0.507813" stop-color="#FB327A"/>
<stop offset="0.511719" stop-color="#FB307B"/>
<stop offset="0.515625" stop-color="#FB2E7B"/>
<stop offset="0.519531" stop-color="#FB2D7C"/>
<stop offset="0.523438" stop-color="#FB2B7D"/>
<stop offset="0.527344" stop-color="#FB2A7E"/>
<stop offset="0.53125" stop-color="#FB287F"/>
<stop offset="0.535156" stop-color="#FB2780"/>
<stop offset="0.539062" stop-color="#FB2581"/>
<stop offset="0.542969" stop-color="#FB2382"/>
<stop offset="0.546875" stop-color="#FB2283"/>
<stop offset="0.550781" stop-color="#FB2184"/>
<stop offset="0.554688" stop-color="#FA2085"/>
<stop offset="0.558594" stop-color="#F91F85"/>
<stop offset="0.5625" stop-color="#F81F86"/>
<stop offset="0.566406" stop-color="#F71F87"/>
<stop offset="0.570312" stop-color="#F61F88"/>
<stop offset="0.574219" stop-color="#F51E89"/>
<stop offset="0.578125" stop-color="#F51E89"/>
<stop offset="0.582031" stop-color="#F41E8A"/>
<stop offset="0.585938" stop-color="#F31D8B"/>
<stop offset="0.589844" stop-color="#F21D8C"/>
<stop offset="0.59375" stop-color="#F11D8C"/>
<stop offset="0.597656" stop-color="#F01D8D"/>
<stop offset="0.601562" stop-color="#EF1C8E"/>
<stop offset="0.605469" stop-color="#EE1C8F"/>
<stop offset="0.609375" stop-color="#ED1C90"/>
<stop offset="0.613281" stop-color="#EC1B90"/>
<stop offset="0.617188" stop-color="#EB1B91"/>
<stop offset="0.621094" stop-color="#EA1B92"/>
<stop offset="0.625" stop-color="#E91B93"/>
<stop offset="0.628906" stop-color="#E81A94"/>
<stop offset="0.632812" stop-color="#E71A94"/>
<stop offset="0.636719" stop-color="#E61A95"/>
<stop offset="0.640625" stop-color="#E51996"/>
<stop offset="0.644531" stop-color="#E41997"/>
<stop offset="0.648438" stop-color="#E31997"/>
<stop offset="0.652344" stop-color="#E21998"/>
<stop offset="0.65625" stop-color="#E21899"/>
<stop offset="0.660156" stop-color="#E1189A"/>
<stop offset="0.664062" stop-color="#E0189B"/>
<stop offset="0.667969" stop-color="#DF179B"/>
<stop offset="0.671875" stop-color="#DE179C"/>
<stop offset="0.675781" stop-color="#DD179D"/>
<stop offset="0.679688" stop-color="#DC179E"/>
<stop offset="0.683594" stop-color="#DB169E"/>
<stop offset="0.6875" stop-color="#DA169F"/>
<stop offset="0.691406" stop-color="#D916A0"/>
<stop offset="0.695312" stop-color="#D816A1"/>
<stop offset="0.699219" stop-color="#D715A2"/>
<stop offset="0.703125" stop-color="#D615A2"/>
<stop offset="0.707031" stop-color="#D515A3"/>
<stop offset="0.710938" stop-color="#D414A4"/>
<stop offset="0.714844" stop-color="#D314A5"/>
<stop offset="0.71875" stop-color="#D214A5"/>
<stop offset="0.722656" stop-color="#D114A6"/>
<stop offset="0.726562" stop-color="#D013A7"/>
<stop offset="0.730469" stop-color="#D013A8"/>
<stop offset="0.734375" stop-color="#CF13A9"/>
<stop offset="0.738281" stop-color="#CE12A9"/>
<stop offset="0.742188" stop-color="#CD12AA"/>
<stop offset="0.746094" stop-color="#CC12AB"/>
<stop offset="0.75" stop-color="#CB12AC"/>
<stop offset="0.753906" stop-color="#CA11AC"/>
<stop offset="0.757812" stop-color="#C911AD"/>
<stop offset="0.761719" stop-color="#C811AE"/>
<stop offset="0.765625" stop-color="#C710AF"/>
<stop offset="0.769531" stop-color="#C610B0"/>
<stop offset="0.773438" stop-color="#C510B0"/>
<stop offset="0.777344" stop-color="#C410B1"/>
<stop offset="0.78125" stop-color="#C30FB2"/>
<stop offset="0.785156" stop-color="#C20FB3"/>
<stop offset="0.789062" stop-color="#C10FB4"/>
<stop offset="0.792969" stop-color="#C00EB4"/>
<stop offset="0.796875" stop-color="#BF0EB5"/>
<stop offset="0.800781" stop-color="#BE0EB6"/>
<stop offset="0.804688" stop-color="#BE0EB7"/>
<stop offset="0.808594" stop-color="#BD0DB7"/>
<stop offset="0.8125" stop-color="#BC0DB8"/>
<stop offset="0.816406" stop-color="#BB0DB9"/>
<stop offset="0.820313" stop-color="#BA0CBA"/>
<stop offset="0.824219" stop-color="#B90CBB"/>
<stop offset="0.828125" stop-color="#B80CBB"/>
<stop offset="0.832031" stop-color="#B70CBC"/>
<stop offset="0.835938" stop-color="#B60BBD"/>
<stop offset="0.839844" stop-color="#B50BBE"/>
<stop offset="0.84375" stop-color="#B40BBE"/>
<stop offset="0.847656" stop-color="#B30BBF"/>
<stop offset="0.851562" stop-color="#B20AC0"/>
<stop offset="0.855469" stop-color="#B10AC1"/>
<stop offset="0.859375" stop-color="#B00AC2"/>
<stop offset="0.863281" stop-color="#AF09C2"/>
<stop offset="0.867188" stop-color="#AE09C3"/>
<stop offset="0.871094" stop-color="#AD09C4"/>
<stop offset="0.875" stop-color="#AC09C5"/>
<stop offset="0.878906" stop-color="#AC08C5"/>
<stop offset="0.882812" stop-color="#AB08C6"/>
<stop offset="0.886719" stop-color="#AA08C7"/>
<stop offset="0.890625" stop-color="#A907C8"/>
<stop offset="0.894531" stop-color="#A807C9"/>
<stop offset="0.898438" stop-color="#A707C9"/>
<stop offset="0.902344" stop-color="#A607CA"/>
<stop offset="0.90625" stop-color="#A506CB"/>
<stop offset="0.910156" stop-color="#A406CC"/>
<stop offset="0.914063" stop-color="#A306CD"/>
<stop offset="0.917969" stop-color="#A205CD"/>
<stop offset="0.921875" stop-color="#A105CE"/>
<stop offset="0.925781" stop-color="#A005CF"/>
<stop offset="0.929688" stop-color="#9F05D0"/>
<stop offset="0.933594" stop-color="#9E04D0"/>
<stop offset="0.9375" stop-color="#9D04D1"/>
<stop offset="0.941406" stop-color="#9C04D2"/>
<stop offset="0.945312" stop-color="#9B03D3"/>
<stop offset="0.949219" stop-color="#9B03D3"/>
<stop offset="0.953125" stop-color="#9A03D4"/>
<stop offset="0.96875" stop-color="#9A03D4"/>
<stop offset="1" stop-color="#9A03D4"/>
</linearGradient>
<linearGradient id="paint1_linear_207_11" x1="51.2408" y1="1.28741" x2="3.98919" y2="53.7525" gradientUnits="userSpaceOnUse">
<stop stop-color="#FEC224"/>
<stop offset="0.125" stop-color="#FEC224"/>
<stop offset="0.15625" stop-color="#FEC224"/>
<stop offset="0.164062" stop-color="#FEC224"/>
<stop offset="0.167969" stop-color="#FEC125"/>
<stop offset="0.171875" stop-color="#FEC025"/>
<stop offset="0.175781" stop-color="#FEBE27"/>
<stop offset="0.179688" stop-color="#FEBC28"/>
<stop offset="0.183594" stop-color="#FEBA29"/>
<stop offset="0.1875" stop-color="#FEB82A"/>
<stop offset="0.191406" stop-color="#FEB62B"/>
<stop offset="0.195312" stop-color="#FEB42C"/>
<stop offset="0.199219" stop-color="#FEB22D"/>
<stop offset="0.203125" stop-color="#FEB02E"/>
<stop offset="0.207031" stop-color="#FEAE30"/>
<stop offset="0.210938" stop-color="#FEAD31"/>
<stop offset="0.214844" stop-color="#FEAB32"/>
<stop offset="0.21875" stop-color="#FEA933"/>
<stop offset="0.222656" stop-color="#FDA734"/>
<stop offset="0.226562" stop-color="#FDA535"/>
<stop offset="0.230469" stop-color="#FDA336"/>
<stop offset="0.234375" stop-color="#FDA137"/>
<stop offset="0.238281" stop-color="#FD9F39"/>
<stop offset="0.242188" stop-color="#FD9D3A"/>
<stop offset="0.246094" stop-color="#FD9B3B"/>
<stop offset="0.25" stop-color="#FD9A3C"/>
<stop offset="0.253906" stop-color="#FD983D"/>
<stop offset="0.257812" stop-color="#FD963E"/>
<stop offset="0.261719" stop-color="#FD943F"/>
<stop offset="0.265625" stop-color="#FD9240"/>
<stop offset="0.269531" stop-color="#FD9042"/>
<stop offset="0.273438" stop-color="#FD8E43"/>
<stop offset="0.277344" stop-color="#FD8C44"/>
<stop offset="0.28125" stop-color="#FD8A45"/>
<stop offset="0.285156" stop-color="#FD8846"/>
<stop offset="0.289062" stop-color="#FD8747"/>
<stop offset="0.292969" stop-color="#FD8548"/>
<stop offset="0.296875" stop-color="#FD834A"/>
<stop offset="0.300781" stop-color="#FD814B"/>
<stop offset="0.304688" stop-color="#FD7F4C"/>
<stop offset="0.308594" stop-color="#FD7D4D"/>
<stop offset="0.3125" stop-color="#FD7B4E"/>
<stop offset="0.316406" stop-color="#FD794F"/>
<stop offset="0.320312" stop-color="#FD7750"/>
<stop offset="0.324219" stop-color="#FD7551"/>
<stop offset="0.328125" stop-color="#FC7353"/>
<stop offset="0.332031" stop-color="#FC7254"/>
<stop offset="0.335938" stop-color="#FC7055"/>
<stop offset="0.339844" stop-color="#FC6E56"/>
<stop offset="0.34375" stop-color="#FC6C57"/>
<stop offset="0.347656" stop-color="#FC6A58"/>
<stop offset="0.351562" stop-color="#FC6859"/>
<stop offset="0.355469" stop-color="#FC665A"/>
<stop offset="0.359375" stop-color="#FC645C"/>
<stop offset="0.363281" stop-color="#FC625D"/>
<stop offset="0.367188" stop-color="#FC605E"/>
<stop offset="0.371094" stop-color="#FC5F5F"/>
<stop offset="0.375" stop-color="#FC5D60"/>
<stop offset="0.378906" stop-color="#FC5B61"/>
<stop offset="0.382812" stop-color="#FC5962"/>
<stop offset="0.386719" stop-color="#FC5763"/>
<stop offset="0.390625" stop-color="#FC5565"/>
<stop offset="0.394531" stop-color="#FC5366"/>
<stop offset="0.398438" stop-color="#FC5167"/>
<stop offset="0.402344" stop-color="#FC4F68"/>
<stop offset="0.40625" stop-color="#FC4D69"/>
<stop offset="0.410156" stop-color="#FC4B6A"/>
<stop offset="0.414062" stop-color="#FC4A6B"/>
<stop offset="0.417969" stop-color="#FC486C"/>
<stop offset="0.421875" stop-color="#FC466E"/>
<stop offset="0.425781" stop-color="#FC446F"/>
<stop offset="0.429688" stop-color="#FC4270"/>
<stop offset="0.433594" stop-color="#FC4071"/>
<stop offset="0.4375" stop-color="#FB3E72"/>
<stop offset="0.441406" stop-color="#FB3C73"/>
<stop offset="0.445312" stop-color="#FB3A74"/>
<stop offset="0.449219" stop-color="#FB3876"/>
<stop offset="0.453125" stop-color="#FB3777"/>
<stop offset="0.457031" stop-color="#FB3578"/>
<stop offset="0.460938" stop-color="#FB3379"/>
<stop offset="0.464844" stop-color="#FB317A"/>
<stop offset="0.46875" stop-color="#FB2F7B"/>
<stop offset="0.472656" stop-color="#FB2D7C"/>
<stop offset="0.476562" stop-color="#FB2B7D"/>
<stop offset="0.480469" stop-color="#FB297F"/>
<stop offset="0.484375" stop-color="#FB2780"/>
<stop offset="0.488281" stop-color="#FB2581"/>
<stop offset="0.492188" stop-color="#FB2382"/>
<stop offset="0.496094" stop-color="#FB2283"/>
<stop offset="0.5" stop-color="#FB2084"/>
<stop offset="0.503906" stop-color="#FA1F85"/>
<stop offset="0.507812" stop-color="#F91F86"/>
<stop offset="0.511719" stop-color="#F71F87"/>
<stop offset="0.515625" stop-color="#F61E88"/>
<stop offset="0.519531" stop-color="#F51E89"/>
<stop offset="0.523438" stop-color="#F41E8A"/>
<stop offset="0.527344" stop-color="#F31D8B"/>
<stop offset="0.53125" stop-color="#F21D8C"/>
<stop offset="0.535156" stop-color="#F01D8D"/>
<stop offset="0.539062" stop-color="#EF1C8E"/>
<stop offset="0.542969" stop-color="#EE1C8F"/>
<stop offset="0.546875" stop-color="#ED1C90"/>
<stop offset="0.550781" stop-color="#EC1B90"/>
<stop offset="0.554688" stop-color="#EB1B91"/>
<stop offset="0.558594" stop-color="#EA1B92"/>
<stop offset="0.5625" stop-color="#E81A93"/>
<stop offset="0.566406" stop-color="#E71A94"/>
<stop offset="0.570312" stop-color="#E61A95"/>
<stop offset="0.574219" stop-color="#E51996"/>
<stop offset="0.578125" stop-color="#E41997"/>
<stop offset="0.582031" stop-color="#E31998"/>
<stop offset="0.585938" stop-color="#E21899"/>
<stop offset="0.589844" stop-color="#E0189A"/>
<stop offset="0.59375" stop-color="#DF189B"/>
<stop offset="0.597656" stop-color="#DE179C"/>
<stop offset="0.601562" stop-color="#DD179D"/>
<stop offset="0.605469" stop-color="#DC179E"/>
<stop offset="0.609375" stop-color="#DB169F"/>
<stop offset="0.613281" stop-color="#DA16A0"/>
<stop offset="0.617188" stop-color="#D816A1"/>
<stop offset="0.621094" stop-color="#D715A1"/>
<stop offset="0.625" stop-color="#D615A2"/>
<stop offset="0.628906" stop-color="#D515A3"/>
<stop offset="0.632812" stop-color="#D414A4"/>
<stop offset="0.636719" stop-color="#D314A5"/>
<stop offset="0.640625" stop-color="#D214A6"/>
<stop offset="0.644531" stop-color="#D013A7"/>
<stop offset="0.648438" stop-color="#CF13A8"/>
<stop offset="0.652344" stop-color="#CE13A9"/>
<stop offset="0.65625" stop-color="#CD12AA"/>
<stop offset="0.660156" stop-color="#CC12AB"/>
<stop offset="0.664063" stop-color="#CB12AC"/>
<stop offset="0.667969" stop-color="#C911AD"/>
<stop offset="0.671875" stop-color="#C811AE"/>
<stop offset="0.675781" stop-color="#C710AF"/>
<stop offset="0.679688" stop-color="#C610B0"/>
<stop offset="0.683594" stop-color="#C510B1"/>
<stop offset="0.6875" stop-color="#C40FB2"/>
<stop offset="0.691406" stop-color="#C30FB2"/>
<stop offset="0.695312" stop-color="#C10FB3"/>
<stop offset="0.699219" stop-color="#C00EB4"/>
<stop offset="0.703125" stop-color="#BF0EB5"/>
<stop offset="0.707031" stop-color="#BE0EB6"/>
<stop offset="0.710938" stop-color="#BD0DB7"/>
<stop offset="0.714844" stop-color="#BC0DB8"/>
<stop offset="0.71875" stop-color="#BB0DB9"/>
<stop offset="0.722656" stop-color="#B90CBA"/>
<stop offset="0.726562" stop-color="#B80CBB"/>
<stop offset="0.730469" stop-color="#B70CBC"/>
<stop offset="0.734375" stop-color="#B60BBD"/>
<stop offset="0.738281" stop-color="#B50BBE"/>
<stop offset="0.742188" stop-color="#B40BBF"/>
<stop offset="0.746094" stop-color="#B30AC0"/>
<stop offset="0.75" stop-color="#B10AC1"/>
<stop offset="0.753906" stop-color="#B00AC2"/>
<stop offset="0.757812" stop-color="#AF09C3"/>
<stop offset="0.761719" stop-color="#AE09C3"/>
<stop offset="0.765625" stop-color="#AD09C4"/>
<stop offset="0.769531" stop-color="#AC08C5"/>
<stop offset="0.773438" stop-color="#AB08C6"/>
<stop offset="0.777344" stop-color="#A908C7"/>
<stop offset="0.78125" stop-color="#A807C8"/>
<stop offset="0.785156" stop-color="#A707C9"/>
<stop offset="0.789062" stop-color="#A607CA"/>
<stop offset="0.792969" stop-color="#A506CB"/>
<stop offset="0.796875" stop-color="#A406CC"/>
<stop offset="0.800781" stop-color="#A206CD"/>
<stop offset="0.804688" stop-color="#A105CE"/>
<stop offset="0.808594" stop-color="#A005CF"/>
<stop offset="0.8125" stop-color="#9F05D0"/>
<stop offset="0.816406" stop-color="#9E04D1"/>
<stop offset="0.820312" stop-color="#9D04D2"/>
<stop offset="0.824219" stop-color="#9C04D3"/>
<stop offset="0.828125" stop-color="#9A03D4"/>
<stop offset="0.84375" stop-color="#9A03D4"/>
<stop offset="0.875" stop-color="#9A03D4"/>
<stop offset="1" stop-color="#9A03D4"/>
</linearGradient>
</defs>
</svg>
