<svg width="72" height="88" viewBox="0 0 72 88" fill="none" xmlns="http://www.w3.org/2000/svg">
<mask id="mask0_134_49782" style="mask-type:luminance" maskUnits="userSpaceOnUse" x="11" y="4" width="61" height="84">
<path d="M11.334 4H71.9694V88H11.334V4Z" fill="white"/>
</mask>
<g mask="url(#mask0_134_49782)">
<path d="M58.8815 7.54184L29.8555 40.2971L30.7774 29.7606C31.2253 24.5835 27.9388 20.0731 22.9545 19.0262C20.9649 18.6096 18.9545 19.9116 18.4753 21.9221C16.7565 29.1512 12.694 46.8752 12.0951 55.5523C12.0326 56.0783 11.6524 59.6148 12.4597 64.2085C13.6003 70.7033 16.5899 76.2502 21.1159 80.2606C27.0899 85.5523 33.7201 87.7814 40.8295 86.87C45.9649 86.2189 51.0013 83.8023 55.0117 80.0783L68.444 67.5991C68.4805 67.5627 68.517 67.5262 68.5534 67.4845C71.2982 64.396 71.1315 59.745 68.1784 57.1304L68.168 57.12C67.694 56.7033 66.9701 56.745 66.5482 57.2189L62.8138 61.4325C62.3399 61.9741 61.517 62.021 60.9805 61.547C60.444 61.0679 60.3972 60.2502 60.8711 59.7137L65.1524 54.8804C67.7774 51.7918 67.5795 47.2346 64.668 44.6564L64.6576 44.646C64.1836 44.2293 63.4597 44.271 63.0378 44.745L58.6003 49.7554C58.1315 50.2866 57.3086 50.3856 56.7617 49.9325C56.194 49.4585 56.1367 48.62 56.6211 48.0731L61.6263 42.4221C64.2774 39.3335 64.0795 34.7606 61.1628 32.1721L61.1524 32.1668C60.6836 31.7502 59.9649 31.7971 59.5482 32.2658L51.7617 41.0523C51.2878 41.5835 50.4649 41.6877 49.918 41.2293C49.3555 40.7606 49.293 39.9168 49.7774 39.37L69.5795 17.021C72.1992 14.0679 71.9232 9.55226 68.9701 6.93247C66.017 4.31788 61.5013 4.58872 58.8815 7.54184Z" fill="white"/>
</g>
<mask id="mask1_134_49782" style="mask-type:luminance" maskUnits="userSpaceOnUse" x="0" y="0" width="48" height="15">
<path d="M0.96875 0.15625H47.3333V14.6667H0.96875V0.15625Z" fill="white"/>
</mask>
<g mask="url(#mask1_134_49782)">
<path d="M40.6507 9.33879L36.8539 11.3544C36.0361 11.7919 35.7236 12.8075 36.1611 13.6305C36.5986 14.4586 37.6299 14.7555 38.432 14.3232L45.2445 10.7086C46.1299 10.3648 46.5414 9.18774 46.0674 8.35962L42.3018 1.33879C41.8643 0.521078 40.8434 0.213786 40.0257 0.651286C39.208 1.08879 38.9007 2.10962 39.3382 2.92733L40.9111 5.85441C30.3174 2.06795 20.9893 2.43254 14.7393 3.53149C7.01531 4.89087 2.24969 7.58879 2.04656 7.70337C1.24448 8.16691 0.963229 9.19295 1.42677 9.99504C1.8851 10.8023 2.91635 11.0836 3.71844 10.62C3.76531 10.594 8.17156 8.10441 15.3226 6.84399C21.3278 5.7867 30.3799 5.45858 40.6507 9.33879Z" fill="white"/>
</g>
</svg>
