<svg width="430" height="571" viewBox="0 0 430 571" fill="none" xmlns="http://www.w3.org/2000/svg">
<mask id="mask0_149_25" style="mask-type:luminance" maskUnits="userSpaceOnUse" x="0" y="0" width="277" height="372">
<path d="M0 0.21875H276.922V371.219H0V0.21875Z" fill="white"/>
</mask>
<g mask="url(#mask0_149_25)">
<path d="M113.208 3.45321C122.104 6.20842 122.104 6.20842 132.312 10.797C132.838 10.698 133.359 10.6407 133.88 10.6407C134.411 10.6355 134.76 10.6459 135.109 10.6928C141.171 6.84383 141.171 6.84383 146.687 3.95842C145.781 3.79696 145.244 3.55217 145.072 3.30217C145.093 2.92717 146.385 2.68758 148.213 2.77092C149.864 2.84904 151.296 3.21883 151.453 3.60425C151.427 3.96883 150.312 4.22404 148.677 4.16675C148.802 10.6407 148.802 10.6407 148.812 20.4115C164.437 23.1407 164.437 23.1407 179.828 26.6563C180.442 26.2761 181.515 26.1199 182.671 26.2813C184.656 26.5782 186.557 27.698 186.916 28.7761C186.953 29.1928 186.833 29.573 186.567 29.8699C199.921 45.823 199.921 45.823 213.854 65.5886C222.583 72.6355 222.583 72.6355 231.171 79.9636C237.093 82.9688 237.093 82.9688 242.843 85.9949C243.046 85.6043 243.484 85.3907 244.125 85.5886C245.005 85.7657 245.927 86.7136 246.161 87.6824C246.38 88.6563 245.859 89.3126 244.875 89.0261C243.984 88.8595 243.083 87.9324 242.864 86.9584C242.786 86.8334 242.807 86.8126 242.828 86.797C236.989 83.6928 236.989 83.6928 231.057 80.7188C230.942 80.6303 230.942 80.6303 230.828 80.5522C222.291 73.2501 222.291 73.2501 213.729 66.3178C203.463 75.8855 203.463 75.8855 191.885 87.2188C204.01 90.2188 204.01 90.2188 215.755 93.4324C215.989 91.8334 217.421 90.9063 219.203 91.1251C221.421 91.448 223.489 93.474 223.838 95.6459C224.005 96.7293 223.661 97.6043 223.046 98.2188C236.598 114.958 249.25 132.099 260.843 149.25C261.307 148.844 261.885 148.672 262.52 148.755C263.5 148.886 264.375 149.453 265.062 150.5C269.723 146.094 269.723 146.094 274.057 141.984C274 141.849 273.937 141.568 273.89 141.287C273.755 140.125 274.296 139.333 275.093 139.531C275.833 139.589 276.546 140.589 276.697 141.761C276.833 142.938 276.307 143.698 275.546 143.63C275.156 143.443 274.828 143.245 274.541 142.88C270.208 146.964 270.208 146.964 265.541 151.328C265.817 151.938 266.026 152.708 266.062 153.38C266.223 155.787 264.927 157.688 263.135 157.547C262.802 157.49 262.479 157.422 262.156 157.24C258.369 170.287 258.369 170.287 254.005 183.813C255.583 212.849 255.583 212.849 255.51 240.328C257.317 240.151 258.567 241.75 258.281 243.995C257.927 246.375 256.234 248.375 254.354 248.74C253.968 248.833 253.64 248.802 253.369 248.651C242.494 269.609 242.494 269.609 230.864 289.224C234.546 293.104 234.546 293.104 238.083 296.578C245.026 296.406 245.026 296.406 251.52 296.016C252.286 294.771 253.614 293.615 254.833 293.224C256.395 292.703 257.197 293.646 256.734 295.198C256.135 296.859 254.421 298.609 252.869 299.141C251.312 299.651 250.453 298.781 250.921 297.214C250.984 297.057 251.057 296.906 251.135 296.755C245.067 297.12 245.067 297.12 238.557 297.333C244.76 308.359 244.76 308.359 249.135 316.787C249.286 316.693 249.442 316.615 249.609 316.542C250.286 316.271 250.687 316.464 250.328 317.12C249.973 317.766 249.192 318.464 248.515 318.745C247.838 319.016 247.447 318.813 247.802 318.162C247.859 317.953 248.072 317.677 248.458 317.318C244.057 309.037 244.057 309.037 237.89 298.167C235.192 309.412 235.192 309.412 232.302 319.292C233.979 318.807 234.848 319.443 234.317 320.708C233.791 321.984 231.963 323.464 230.291 323.984C228.489 324.583 227.494 323.984 228.031 322.682C228.593 321.448 230.088 320.141 231.635 319.49C234.567 309.136 234.567 309.136 237.296 297.271C226.015 285.839 226.015 285.839 212.13 271.792C211.484 272.287 210.635 272.693 209.734 272.859C204.911 296.636 204.911 296.636 199.598 316.797C201.364 316.755 202.479 317.688 202.156 319.073C201.848 320.495 200.031 321.927 198.072 322.354C195.296 331.255 192.713 338.943 189.906 345.625C191.619 345.412 192.505 345.917 192.239 346.729C192.078 347.297 191.208 347.938 190.093 348.417C191.77 350.75 191.77 350.75 193.197 352.823C193.364 352.776 193.531 352.729 193.713 352.688C194.755 352.458 195.552 352.594 195.333 353.031C194.932 353.521 193.802 354.094 192.755 354.318C191.708 354.547 190.911 354.417 191.151 353.979C191.421 353.667 191.875 353.349 192.364 353.13C190.947 351.052 190.947 351.052 189.286 348.708C188.958 348.813 188.625 348.901 188.114 349.005C186.244 349.339 185.041 348.88 185.312 347.995C185.447 347.854 185.427 347.766 185.562 347.641C169.078 347.313 169.078 347.313 151.51 345.75C150.76 346.443 149.333 346.948 147.869 347C146.895 347.026 145.911 346.87 145.244 346.578C129.75 352.761 129.75 352.761 115.479 357.104C115.974 357.354 116.286 357.625 116.26 357.875C116.385 358.271 115.994 358.578 115.27 358.734C124.593 363.521 124.593 363.521 133.119 367.011C133.484 366.974 134.031 366.964 134.395 366.969C135.854 366.984 137.13 367.261 137.13 367.589C137.13 367.901 136.031 368.146 134.375 368.13C132.911 368.109 131.635 367.839 131.64 367.526C131.645 367.339 132.02 367.188 132.567 367.089C124.046 363.615 124.046 363.615 114.552 358.828C114.364 358.865 114.015 358.865 113.661 358.849C118.052 367.453 118.052 367.453 121.625 371C122.552 371.078 123.109 371.151 123.296 371.198C123.296 371.229 122.546 371.193 121.619 371.115C120.682 371.037 119.942 370.948 119.942 370.927C119.755 370.88 120.317 370.901 121.067 370.958C117.322 367.396 117.322 367.396 112.958 358.807C112.609 358.766 112.26 358.708 111.916 358.63C103.015 364.021 103.015 364.021 96.3225 366.328C97.036 366.521 97.7495 366.75 97.911 366.875C98.2495 367.083 97.312 367.005 95.8485 366.703C94.385 366.391 92.9527 365.979 92.6245 365.771C92.286 365.552 93.2287 365.63 94.687 365.938C95.0516 366.016 95.4162 366.099 95.5933 366.141C102.489 363.87 102.489 363.87 111.234 358.443C110.218 358.125 109.406 357.667 109.296 357.24C109.182 356.839 109.593 356.526 110.317 356.37C75.0568 329.219 75.0568 329.219 36.6922 286.401C36.3329 286.359 36.0777 286.406 35.7391 286.344C33.7808 285.854 31.9527 284 31.51 282.057C30.9995 280.005 32.2079 278.74 34.1975 279.214C34.5204 279.292 34.8277 279.391 35.1141 279.505C43.8589 266.219 54.2704 250.87 66.3693 233.734C44.2443 238.761 44.2443 238.761 24.8485 242.797C20.4579 252.307 20.4579 252.307 16.6245 261.083C17.0985 261.63 17.4266 262.266 17.5881 263.011C17.8537 264.37 17.1245 265.203 15.9995 264.912C14.9475 264.729 13.8068 263.375 13.5308 262.005C13.3277 260.761 13.9943 259.849 15.062 260.037C15.3902 260.177 15.6141 260.203 15.9475 260.5C19.562 252.052 19.562 252.052 23.7131 242.953C12.6766 244.089 12.6766 244.089 2.90579 244.979C3.05683 246.042 2.51516 246.609 1.77037 246.458C1.01516 246.302 0.280788 245.328 0.108912 244.266C-0.0525451 243.198 0.437037 242.505 1.20266 242.662C1.74433 242.755 2.30162 243.318 2.60891 243.979C12.51 243.104 12.51 243.104 23.6975 241.964C14.2547 230.188 14.2547 230.188 5.61412 218.646C5.31204 218.859 4.94745 218.953 4.54641 218.917C3.50475 218.896 2.55162 217.573 2.42662 216.031C2.31725 214.511 3.08808 213.354 4.14016 213.412C5.24954 213.589 6.21308 214.896 6.31204 216.391C6.37454 217.068 6.25995 217.505 6.07766 217.969C14.9475 229.802 14.9475 229.802 24.6089 241.787C44.4006 237.563 44.4006 237.563 67.0568 232.344C63.9162 218.859 63.9162 218.859 60.9527 205.13C60.6818 205.115 60.4318 205.177 60.161 205.172C56.437 205.021 53.4006 201.724 53.3068 197.599C53.2652 194.615 54.8433 192.109 57.1558 190.948C50.3329 169.313 50.3329 169.313 44.4162 148.505C44.1141 148.599 43.7912 148.693 43.4839 148.677C41.187 148.886 39.5047 146.906 39.661 144.359C39.8485 141.781 41.7808 139.63 44.036 139.448C45.3641 139.297 46.5047 139.87 47.1975 140.886C78.4266 119.547 78.4266 119.547 111.604 99.3543C111.578 99.2501 111.541 99.1355 111.599 99.0001C111.619 97.4845 112.567 96.1147 113.979 95.3022C102.932 83.8386 102.932 83.8386 92.687 73.5209C91.9579 73.9532 91.0464 74.2709 90.161 74.3438C87.7495 74.5574 86.0204 73.1095 86.2287 71.1563C86.3641 69.922 87.3537 68.724 88.5777 68.0157C80.76 52.6199 80.76 52.6199 74.4995 40.3595C74.0568 40.5313 73.7443 40.6043 73.2756 40.7136C71.3433 41.0678 69.9735 40.3751 70.4318 39.073C70.7652 37.8647 72.6662 36.5522 74.7652 36.1043C76.2287 35.8178 77.2287 36.1511 77.6558 36.7865C90.8693 32.3907 104.26 28.5626 117.744 25.3282C125.171 18.5418 125.171 18.5418 131.859 13.0105C130.989 12.797 130.286 12.4168 130.432 11.9584C115.609 12.1928 115.609 12.1928 101.38 13.2136C100.963 13.7865 99.4839 14.3959 97.7443 14.6668C95.9995 14.922 94.6662 14.6199 95.0308 13.9168C87.7912 14.9636 87.7912 14.9636 80.8954 16.1668C80.3485 16.7605 78.8902 17.4584 77.3277 17.8334C75.5881 18.2605 74.5568 18.047 75.0568 17.3438C75.4006 16.7136 77.1766 15.8282 78.76 15.4428C80.5204 15.0157 81.5256 15.2188 81.1662 15.8543C88.0725 14.6459 88.0725 14.6459 95.1454 13.6407C95.7287 13.047 97.2287 12.448 98.812 12.198C98.9891 12.172 99.1714 12.1511 99.3433 12.1303C104.807 7.47925 104.807 7.47925 109.942 3.93238C108.833 3.97925 108.255 3.84383 108.401 3.60425C108.562 3.43758 108.911 3.27612 109.447 3.11467C101.474 2.73967 101.474 2.73967 94.3798 3.46363C94.0152 3.55217 93.4683 3.68238 92.9214 3.81258C91.6454 4.11467 90.7339 4.31779 91.0985 4.20842C91.0985 4.20842 91.4527 4.11467 91.6298 4.03654C92.8954 3.71883 94.1714 3.41154 95.4527 3.11988C96.01 3.02612 96.187 2.98967 96.01 3.04175C95.8277 3.09904 95.4631 3.19279 94.9214 3.32821C102.015 2.60425 102.015 2.60425 109.984 2.96883C110.526 2.84904 111.067 2.75008 111.802 2.66154C111.989 2.64071 111.989 2.64071 112.177 2.63029C113.562 1.85946 113.562 1.85946 114.974 1.18238C114.046 1.22404 113.474 1.16675 113.64 1.00529C113.802 0.817792 115.078 0.557376 116.562 0.401125C118.234 0.234458 119.364 0.265709 119.192 0.458417C119.026 0.656334 117.744 0.932376 116.078 1.08863C115.901 1.10946 115.901 1.10946 115.713 1.12508C114.302 1.80217 114.302 1.80217 112.911 2.573C113.838 2.55217 114.593 2.65113 114.437 2.90113C114.276 3.08342 113.744 3.29175 113.208 3.45321ZM77.6714 37.6772C77.6818 37.7032 77.5464 37.797 77.562 37.8282C98.536 37.0574 98.536 37.0574 121.203 37.7397C121.937 36.1147 124.546 34.8647 127.416 34.7709C128.468 34.7449 129.385 34.8699 130.151 35.1147C139.14 27.323 139.14 27.323 147.291 20.8907C112.765 26.9376 112.765 26.9376 77.6818 37.2761C77.7339 37.3907 77.6297 37.5626 77.6714 37.6772ZM77.2756 38.3907C76.8329 38.9897 76.2079 39.5209 75.3641 39.9688C81.6818 52.198 81.6818 52.198 89.6193 67.547C89.9735 67.422 90.4735 67.297 91.0048 67.2397C91.7964 67.1772 92.6402 67.2605 93.2756 67.5261C108.291 53.5365 108.291 53.5365 122.781 41.474C121.541 40.8022 120.849 39.8126 120.869 38.7084C121.005 38.573 120.989 38.4532 120.974 38.3386C98.3641 37.6147 98.3641 37.6147 77.2756 38.3907ZM100.062 12.0938C101.156 12.099 101.76 12.4115 101.677 12.8907C115.744 11.8959 115.744 11.8959 130.427 11.6668C130.588 11.3959 131.104 11.1511 131.619 10.974C121.395 6.37508 121.395 6.37508 112.494 3.60946C112.13 3.68758 111.588 3.78133 111.041 3.84383C110.859 3.86988 110.677 3.88029 110.677 3.87508C105.531 7.42717 105.531 7.42717 100.062 12.0938ZM137.588 11.8595C137.588 12.2449 137.036 12.599 136.171 12.849C141.984 16.1095 141.984 16.1095 147.859 19.9063C147.927 10.4428 147.927 10.4428 147.953 4.12508C147.77 4.10946 147.588 4.09383 147.406 4.06779C141.885 6.95842 141.885 6.95842 135.807 10.8126C136.859 11.0313 137.588 11.4115 137.588 11.8595ZM135.479 13.0313C134.968 13.1355 134.453 13.1928 133.932 13.198C133.416 13.2032 133.072 13.1824 132.724 13.1407C126.171 18.5105 126.171 18.5105 119.015 25.0574C133.458 22.349 133.458 22.349 147.656 20.422C141.468 16.4376 141.468 16.4376 135.479 13.0313ZM151.927 344.917C151.932 345.047 151.791 345.188 151.796 345.302C169.494 346.865 169.494 346.865 185.968 347.214C186.661 346.594 187.895 346.005 189.223 345.714C193.135 335.375 193.135 335.375 197.145 322.484C195.39 322.573 194.223 321.729 194.333 320.453C175.666 321.813 155.979 322.276 135.942 321.729C135.651 323.083 134.38 324.208 132.687 324.828C140.015 334.813 140.015 334.813 146.828 343.203C147.302 343.125 147.614 343.078 148.093 343.068C150.312 342.979 151.984 343.823 151.927 344.917ZM144.744 346.245C144.411 345.979 144.072 345.672 144.062 345.323C127.849 344.891 127.849 344.891 111.666 343.656C111.541 344.453 110.307 344.974 108.812 344.99C110.796 351.141 110.796 351.141 112.609 356.287C113.474 356.386 114.317 356.583 114.989 356.839C129.083 352.453 129.083 352.453 144.744 346.245ZM144.197 344.854C144.333 344.276 145.109 343.755 146.046 343.427C139.114 335.063 139.114 335.063 131.838 325.099C131.125 325.255 130.276 325.333 129.578 325.323C127.744 325.281 126.093 324.755 124.895 323.927C114.932 329 114.932 329 105.645 333.38C106.557 337.292 106.557 337.292 107.599 340.958C109.5 341.172 111.27 342.141 111.583 343.172C127.88 344.422 127.88 344.422 144.197 344.854ZM111.031 356.276C111.218 356.234 111.567 356.234 111.916 356.25C109.953 351.094 109.953 351.094 107.833 344.927C106.052 344.714 104.25 343.755 103.968 342.766C96.2443 341.682 96.2443 341.682 88.8068 340.469C100.197 349.193 100.197 349.193 111.031 356.276ZM38.51 283.583C38.6818 284.401 38.4839 285 38.1662 285.516C71.062 311.479 71.062 311.479 104.437 332.495C99.4475 310.339 99.4475 310.339 94.7027 282.151C91.6506 281.886 89.01 279.984 87.9214 277.511C61.3173 280.823 61.3172 280.823 38.0777 282.448C38.2756 282.833 38.3537 283.146 38.51 283.583ZM37.7027 285.99C37.6141 286.083 37.5204 286.172 37.3277 286.167C62.7756 316.229 62.7756 316.229 87.8485 339.719C95.7495 336.729 95.7495 336.729 104.296 333.125C70.7548 312.063 70.7547 312.063 37.7027 285.99ZM35.9995 280.011C36.5829 280.412 37.1766 281 37.5672 281.589C60.8329 279.87 60.8329 279.87 87.5152 276.511C87.4475 276.193 87.3902 275.859 87.3485 275.511C87.161 273.333 88.3068 271.516 90.0256 270.464C78.812 252.62 78.812 252.62 67.7131 233.839C49.9318 259.125 49.9318 259.125 35.9995 280.011ZM103.901 342.292C104.072 341.484 105.171 340.922 106.635 340.896C105.729 337.438 105.729 337.438 104.781 333.75C96.6089 337.182 96.6089 337.182 88.9475 340.026C96.3589 341.245 96.3589 341.245 103.901 342.292ZM194.526 319.776C194.791 319.276 195.218 318.781 195.677 318.375C183.328 309.365 183.328 309.365 169.583 298.391C168.349 299.234 166.781 299.792 165.093 299.891C163.411 299.969 161.869 299.542 160.75 298.75C147.145 309.042 147.145 309.042 134.375 318.162C135.302 318.948 135.958 319.948 135.953 321.021C166.01 321.474 166.01 321.474 194.526 319.776ZM196.39 317.823C197.135 317.359 197.942 317.026 198.687 316.906C203.911 296.745 203.911 296.745 208.744 272.906C207.682 272.839 206.854 272.344 206.281 271.63C189.177 281.922 189.177 281.922 171.932 291.5C172.291 292.234 172.447 293.073 172.375 293.964C172.229 295.396 171.536 296.698 170.38 297.745C184.218 308.714 184.218 308.714 196.39 317.823ZM222.401 98.7136C221.885 99.0574 221.14 99.1355 220.38 99.047C219.937 99.0001 219.442 98.823 219.078 98.6928C213.197 114.12 213.197 114.12 206.411 131.037C208.489 132.323 210.015 134.719 210.177 137.359C210.177 137.568 210.171 137.771 210.166 137.99C236.63 144.823 236.63 144.823 259.578 151.589C259.687 150.901 259.932 150.307 260.265 149.813C242.39 123.932 242.39 123.932 222.401 98.7136ZM218.125 98.1459C216.838 97.2605 215.947 95.9428 215.755 94.5261C215.703 94.4063 215.703 94.4063 215.744 94.3543C203.828 91.0782 203.828 91.0782 191.541 88.0574C197.026 108.125 197.026 108.125 202.265 129.839C202.5 129.859 202.734 129.891 202.911 129.854C203.776 129.912 204.604 130.125 205.395 130.495C212.161 113.531 212.161 113.531 218.125 98.1459ZM261.406 156.755C261.041 156.448 260.723 156.125 260.442 155.677C237.401 172.849 237.401 172.849 209.671 192.203C210.244 192.922 210.671 193.781 210.937 194.708C233.364 188.74 233.364 188.74 253.255 183.24C257.619 169.766 257.619 169.766 261.406 156.755ZM259.963 154.755C259.723 154.162 259.546 153.427 259.51 152.787C259.526 152.781 259.51 152.662 259.494 152.531C236.541 145.891 236.541 145.891 210.041 139.089C209.473 142.031 207.067 144.136 204.031 144.193C204.177 166.641 204.177 166.641 203.791 189.557C203.968 189.5 204.145 189.511 204.328 189.526C206.083 189.5 207.682 190.172 208.895 191.333C236.781 171.917 236.781 171.917 259.963 154.755ZM252.661 248.417C252.187 248.156 251.843 247.672 251.619 247.099C233.786 257.208 233.786 257.208 214.25 267.198C214.276 267.557 214.296 267.906 214.213 268.318C214.156 269.261 213.656 270.24 212.963 271.016C222.14 280.469 222.14 280.469 230.281 288.771C241.833 269.25 241.833 269.25 252.661 248.417ZM251.479 246.146C251.427 245.828 251.406 245.521 251.463 245.115C251.557 244.297 251.88 243.448 252.343 242.677C232.843 223.948 232.843 223.948 209.166 202.193C208.109 203.37 206.723 204.198 205.197 204.438C208.385 235.833 208.385 235.833 210.312 264.578C210.338 264.599 210.338 264.599 210.442 264.557C212.062 264.386 213.369 265.125 213.932 266.365C233.567 256.302 233.567 256.302 251.479 246.146ZM252.963 241.839C253.427 241.344 254.015 240.912 254.645 240.641C254.77 213.156 254.77 213.156 253.192 184.401C233.427 189.901 233.427 189.901 211.161 195.865C211.208 196.245 211.234 196.552 211.229 196.932C211.192 198.599 210.697 200.099 209.88 201.297C233.505 223.099 233.505 223.099 252.963 241.839ZM185.973 30.1251C185.416 30.2605 184.88 30.349 184.067 30.2501C185.822 40.7813 185.822 40.7813 187.5 53.4949C190.593 54.1511 193.197 56.323 193.666 58.7084C193.734 58.9167 193.661 59.073 193.718 59.2761C203.328 62.099 203.328 62.099 212.656 65.0886C198.953 45.7449 198.953 45.7449 185.973 30.1251ZM183.104 30.0782C183.098 30.0834 182.942 30.0418 182.791 30.0001C180.14 37.3699 180.14 37.3699 177.161 46.0938C180.562 49.7188 180.562 49.7188 184.052 53.5157C184.723 53.3126 185.63 53.2657 186.51 53.3438C184.911 40.6407 184.911 40.6407 183.104 30.0782ZM181.869 29.6876C181.265 29.4376 180.687 29.0938 180.286 28.724C173.276 29.474 173.276 29.474 166.088 30.4636C166.218 30.6615 166.182 30.8386 166.296 31.0678C166.421 32.073 165.333 32.8334 163.734 32.9845C169.88 38.823 169.88 38.823 176.338 45.2761C179.328 36.8595 179.328 36.8595 181.869 29.6876ZM179.75 28.2188C179.63 28.0418 179.505 27.8386 179.552 27.6824C179.447 27.4324 179.505 27.2293 179.557 27.0313C164.531 23.5886 164.531 23.5886 149.276 20.9115C154.182 24.7657 154.182 24.7657 159.286 29.0522C159.979 28.7032 160.963 28.5313 162.078 28.6095C163.505 28.7188 164.859 29.2605 165.546 29.9428C172.89 28.9949 172.89 28.9949 179.75 28.2188ZM162.635 32.974C162.635 32.974 162.635 32.974 162.635 32.9845C161.093 32.8699 159.765 32.323 159.083 31.6095C146.343 34.0678 146.343 34.0678 133.218 37.1876C133.375 37.5574 133.531 37.948 133.546 38.3595C133.411 38.7865 133.416 39.1928 133.14 39.5834C153.302 45.224 153.302 45.224 173.963 52.2657C174.984 49.0782 174.984 49.0782 176.114 46.073C169.333 39.2084 169.333 39.2084 162.635 32.974ZM158.531 31.073C158.401 30.8751 158.427 30.6876 158.302 30.4688C158.349 30.0938 158.401 29.7293 158.755 29.448C153.51 24.9793 153.51 24.9793 148.447 20.9584C140.093 27.4793 140.093 27.4793 131.067 35.4063C131.828 35.7188 132.437 36.1459 132.755 36.6511C146.067 33.547 146.067 33.547 158.531 31.073ZM94.9891 70.3543C94.937 71.2813 94.3745 72.1824 93.4943 72.9168C103.875 83.2813 103.875 83.2813 115.015 94.8386C115.463 94.7032 115.921 94.6147 116.302 94.5886C121.213 65.5886 121.213 65.5886 125.901 42.3751C125.031 42.297 124.145 42.1199 123.536 41.8386C109.067 53.9376 109.067 53.9376 93.9787 67.9897C94.7131 68.547 95.0308 69.4011 94.9891 70.3543ZM121.328 98.7449C121.218 100.979 119.343 102.854 116.901 103.167C116.515 114.969 116.515 114.969 116.234 127.266C126.869 116.031 126.869 116.031 137.359 105.287C137.177 104.781 137.099 104.261 137.099 103.724C137.099 103.297 137.093 102.88 137.265 102.474C129.27 100.557 129.27 100.557 121.328 98.7449ZM115.687 103.208C113.875 103.047 112.296 101.964 111.833 100.412C78.7548 120.568 78.7547 120.568 47.661 141.776C47.8485 142.417 47.9683 143.021 47.911 143.755C47.8277 145.542 46.7756 147.224 45.3433 148.13C51.3016 168.948 51.3016 168.948 58.1454 190.563C58.7131 190.365 59.312 190.328 59.9266 190.287C60.3797 190.328 60.8329 190.38 61.26 190.422C87.286 159.438 87.286 159.438 115.031 128.578C115.338 115.615 115.338 115.615 115.687 103.208ZM117.447 94.6251C119.296 94.8751 120.739 96.0678 121.213 97.6459C129.343 99.5001 129.343 99.5001 137.614 101.464C138.39 99.5105 140.239 98.0001 142.468 97.4376C134.63 66.6511 134.63 66.6511 127.77 42.3699C127.63 42.3907 127.343 42.4115 127.057 42.422C126.906 42.4272 126.906 42.4272 126.906 42.422C122.312 65.6251 122.312 65.6251 117.447 94.6251ZM159.927 298.182C159.041 297.255 158.458 296.037 158.536 294.662C158.671 292.479 160.265 290.505 162.453 289.448C154.322 272.432 154.322 272.432 145.593 253.646C137.828 288.333 137.828 288.333 131.114 316.636C132.026 316.833 132.937 317.177 133.724 317.63C146.474 308.479 146.474 308.479 159.927 298.182ZM163.567 289.016C164.281 288.781 165.026 288.646 165.796 288.615C168.224 288.479 170.197 289.359 171.348 290.776C188.76 281.125 188.76 281.125 205.812 270.859C205.677 270.339 205.546 269.833 205.619 269.229C205.833 267.287 207.39 265.49 209.25 264.849C207.302 236.016 207.302 236.016 204.078 204.552C202.177 204.557 200.463 203.776 199.213 202.464C181.854 219.318 164.01 235.927 146.067 251.922C155.203 271.401 155.203 271.401 163.567 289.016ZM124.109 323.38C123.338 322.656 122.875 321.771 122.838 320.823C122.734 319.307 123.817 317.979 125.5 317.198C112.01 300.74 112.01 300.74 97.7443 281.724C97.187 281.979 96.4475 282.094 95.7443 282.141C100.51 310.448 100.51 310.448 105.338 332.63C114.588 328.359 114.588 328.359 124.109 323.38ZM126.328 316.844C127.281 316.573 128.213 316.417 129.27 316.438C129.536 316.443 129.796 316.458 130.062 316.479C136.901 287.563 136.901 287.563 144.718 252.057C133.203 245.276 133.203 245.276 121.474 238.261C120.104 240.026 117.89 241.146 115.416 241.109C114.187 241.089 113.005 240.776 111.968 240.255C104.468 256.011 104.468 256.011 97.4475 270.708C99.6141 271.906 101.187 274.057 101.302 276.386C101.437 278.511 100.416 280.302 98.6975 281.307C112.937 300.354 112.937 300.354 126.328 316.844ZM91.0256 270.068C91.8589 269.745 92.812 269.583 93.8537 269.651C94.7704 269.714 95.6298 269.912 96.4214 270.229C103.432 255.453 103.432 255.453 110.927 239.62C109.036 238.271 107.776 236.104 107.692 233.651C107.656 232.422 107.979 231.287 108.489 230.276C86.562 216.292 86.562 216.292 65.5777 202.24C64.7079 203.526 63.4579 204.469 62.01 204.927C65.0152 218.891 65.0152 218.891 68.2391 232.656C79.5204 251.802 79.5204 251.802 91.0256 270.068ZM66.8797 197.823C66.9058 199.125 66.6402 200.276 66.1558 201.276C87.161 215.307 87.161 215.307 109.119 229.297C110.364 227.636 112.322 226.526 114.567 226.37C114.359 194.287 114.494 161.771 114.958 130.323C87.8693 160.542 87.8693 160.542 62.411 190.792C64.9839 191.912 66.8433 194.651 66.8797 197.823ZM193.697 60.0053C193.203 61.7553 191.333 62.9688 188.651 62.797C189.973 73.974 189.973 73.974 191.255 86.2501C202.671 75.2345 202.671 75.2345 212.697 65.823C203.27 62.797 203.27 62.797 193.697 60.0053ZM187.567 62.6407C186.494 62.4636 185.505 62.0938 184.572 61.5574C175.302 70.9532 175.302 70.9532 165.302 81.6303C177.822 84.0782 177.822 84.0782 190.302 86.849C189.041 74.2084 189.041 74.2084 187.567 62.6407ZM183.661 60.974C182.328 59.9792 181.375 58.6459 181.151 57.2553C181.041 56.724 181.062 56.2397 181.213 55.797C177.885 54.5053 177.885 54.5053 174.677 53.2761C170.411 65.5886 170.411 65.5886 165.609 79.6459C175.052 69.7761 175.052 69.7761 183.661 60.974ZM181.562 55.1824C181.911 54.5834 182.52 54.1095 183.223 53.7709C180.093 50.2813 180.093 50.2813 176.796 46.8647C175.843 49.6772 175.843 49.6772 174.869 52.6147C178.223 53.8803 178.223 53.8803 181.562 55.1824ZM202.895 144.068C199.364 143.557 196.447 140.339 196.302 136.615C196.187 134.292 197.166 132.292 198.781 131.083C188.416 115.995 188.416 115.995 177.958 101.5C171.083 115.823 171.083 115.823 163.812 131.156C182.671 160.729 182.671 160.729 200.619 190.615C201.25 190.224 201.932 189.953 202.661 189.745C203.046 166.667 203.046 166.667 202.895 144.068ZM199.671 130.521C200.171 130.302 200.666 130.094 201.197 129.969C196.062 108.422 196.062 108.422 190.578 88.4168C184.656 94.2918 184.656 94.2918 178.531 100.547C189.114 115.198 189.114 115.198 199.671 130.521ZM198.473 201.604C197.979 200.886 197.604 200.089 197.38 199.203C160.411 215.636 160.411 215.636 122.468 231.516C122.744 232.271 122.916 233.068 122.932 233.901C122.901 235.115 122.625 236.276 122.104 237.287C133.812 244.302 133.812 244.302 145.281 251.083C172.203 226.787 172.203 226.787 198.473 201.604ZM197.166 198.021C197.145 197.708 197.125 197.453 197.13 197.146C197.161 194.802 198.151 192.734 199.692 191.354C181.906 161.719 181.906 161.719 163.26 132.396C140.906 179.339 140.906 179.339 118.25 227.031C119.854 227.729 121.182 228.938 122.005 230.443C160.057 214.49 160.057 214.49 197.166 198.021ZM115.781 226.391C116.229 226.432 116.703 226.526 117.114 226.63C139.958 178.526 139.958 178.526 162.505 131.245C155.255 120.323 155.255 120.323 148.072 109.781C147.088 110.266 145.916 110.526 144.63 110.511C141.625 110.49 138.963 108.813 137.828 106.448C127.093 117.469 127.093 117.469 116.229 128.984C115.614 177.287 115.614 177.287 115.781 226.391ZM152.01 103.865C152.02 106.063 150.942 108.031 149.083 109.234C156.067 119.448 156.067 119.448 163.083 130.011C170.322 114.719 170.322 114.719 177.125 100.422C170.708 91.3855 170.708 91.3855 164.239 82.7136C157.067 90.6043 157.067 90.6043 149.526 98.9845C151.005 100.203 151.927 101.932 152.01 103.865ZM143.625 97.2397C143.895 97.2136 144.255 97.198 144.515 97.198C146.02 97.2136 147.401 97.6303 148.64 98.3386C156.229 89.8178 156.229 89.8178 163.588 81.8334C145.942 59.7553 145.942 59.7553 129.901 41.922C129.619 42.0365 129.192 42.1355 128.765 42.2188C135.692 66.4793 135.692 66.4793 143.625 97.2397ZM132.718 40.1615C132.302 40.7084 131.599 41.1928 130.75 41.573C146.744 59.1199 146.744 59.1199 164.072 80.797C169.171 65.8907 169.171 65.8907 173.64 52.8959C153.088 45.8438 153.088 45.8438 132.718 40.1615ZM189.848 87.6772C177.692 84.9897 177.692 84.9897 165.38 82.5678C171.625 90.9168 171.625 90.9168 177.828 99.599C183.932 93.4428 183.932 93.4428 189.848 87.6772Z" fill="#5CC6D0"/>
</g>
<path d="M98.0573 530.214H91.0469L88.1927 522.776H75.2188L72.5417 530.214H65.5312L78.1615 497.781H85.0833L98.0573 530.214ZM86.1198 517.328L81.5365 505.307L77.2083 517.328H86.1198ZM101.344 530.214V497.781H107.917V530.214H101.344Z" fill="#3E4095"/>
<mask id="mask1_149_25" style="mask-type:luminance" maskUnits="userSpaceOnUse" x="29" y="456" width="115" height="115">
<path d="M29.7246 456.953H143.725V570.953H29.7246V456.953Z" fill="white"/>
</mask>
<g mask="url(#mask1_149_25)">
<path fill-rule="evenodd" clip-rule="evenodd" d="M60.7767 479.354H76.4329L73.4902 465.776C71.5007 465.344 70.0319 463.526 70.0319 461.453C70.0319 458.943 72.0215 456.953 74.5319 456.953C77.0371 456.953 79.0267 458.943 79.0267 461.453C79.0267 463.526 77.5579 465.344 75.5684 465.776L78.5059 479.354H94.1621L91.2246 465.776C89.3184 465.26 87.8496 463.526 87.8496 461.453C87.8496 458.943 89.8392 456.953 92.3496 456.953C94.7715 456.953 96.8444 458.943 96.8444 461.453C96.8444 463.615 95.2871 465.344 93.2975 465.776L96.2402 479.354H112.844C117.001 479.354 120.542 482.469 121.152 486.536L134.818 483.594C134.99 481.26 136.891 479.443 139.313 479.443C141.735 479.443 143.725 481.432 143.725 483.943C143.725 486.448 141.735 488.438 139.313 488.438C137.412 488.438 135.766 487.229 135.074 485.583L121.235 488.609V504.182L134.818 501.328C134.99 499.078 136.98 497.26 139.313 497.26C141.735 497.26 143.725 499.25 143.725 501.76C143.725 504.266 141.735 506.255 139.313 506.255C137.324 506.255 135.683 505.047 135.074 503.318L121.235 506.255V521.911L134.818 519.057C135.074 516.807 136.98 515.078 139.313 515.078C141.735 515.078 143.725 517.068 143.725 519.578C143.725 522 141.735 524.073 139.313 524.073C137.324 524.073 135.683 522.776 135.074 521.047L121.235 523.99V539.99C121.235 544.141 118.12 547.688 114.058 548.292L117.001 562.047C119.334 562.13 121.235 564.12 121.235 566.542C121.235 568.964 119.245 570.953 116.74 570.953C114.318 570.953 112.329 568.964 112.329 566.542C112.329 564.641 113.365 563.083 115.011 562.391L111.98 548.38H96.3288L99.2663 562.047C101.605 562.219 103.417 564.12 103.417 566.542C103.417 568.964 101.428 570.953 98.9225 570.953C96.5007 570.953 94.5111 568.964 94.5111 566.542C94.5111 564.641 95.6361 562.995 97.2767 562.391L94.2507 548.38H78.5944L81.5371 562.047C83.8704 562.219 85.5996 564.12 85.5996 566.542C85.5996 568.964 83.61 570.953 81.1048 570.953C78.6829 570.953 76.6934 568.964 76.6934 566.542C76.6934 564.552 77.9017 562.995 79.5475 562.307L76.5215 548.38H60.6882C56.7975 548.38 53.5111 545.698 52.4746 542.151L38.5475 545.094C38.0267 547.083 36.2975 548.464 34.2246 548.464C31.7142 548.464 29.7246 546.474 29.7246 543.969C29.7246 541.547 31.7142 539.557 34.2246 539.557C36.3861 539.557 38.1152 541.026 38.5475 543.016L52.2142 540.161C52.2142 540.078 52.2142 539.99 52.2142 539.99V524.505L38.5475 527.448C37.9434 529.266 36.2142 530.646 34.2246 530.646C31.7142 530.646 29.7246 528.656 29.7246 526.151C29.7246 523.729 31.7142 521.74 34.2246 521.74C36.3861 521.74 38.2038 523.297 38.6361 525.37L52.2142 522.432V506.776L38.459 509.719C37.9434 511.531 36.2142 512.828 34.2246 512.828C31.7142 512.828 29.7246 510.839 29.7246 508.333C29.7246 505.911 31.7142 503.922 34.2246 503.922C36.3861 503.922 38.2871 505.479 38.6361 507.641L52.2142 504.698V487.745C52.2142 483.766 55.0684 480.479 58.7871 479.615L55.8444 465.865C53.7715 465.432 52.2142 463.615 52.2142 461.453C52.2142 458.943 54.2038 456.953 56.7142 456.953C59.2194 456.953 61.209 458.943 61.209 461.453C61.209 463.526 59.7402 465.26 57.834 465.776L60.7767 479.354ZM62.5059 481.693H110.943C115.183 481.693 118.641 485.151 118.641 489.391V538.344C118.641 542.583 115.183 546.042 110.943 546.042H62.5059C58.2663 546.042 54.8079 542.583 54.8079 538.344V489.391C54.8079 485.151 58.2663 481.693 62.5059 481.693Z" fill="#3E4095"/>
</g>
<mask id="mask2_149_25" style="mask-type:luminance" maskUnits="userSpaceOnUse" x="340" y="232" width="90" height="83">
<path d="M340.125 232.844H429.125V314.844H340.125V232.844Z" fill="white"/>
</mask>
<g mask="url(#mask2_149_25)">
<path fill-rule="evenodd" clip-rule="evenodd" d="M341.953 277.51H352.833C353.823 277.51 354.63 278.318 354.63 279.307V313.239C354.63 314.229 353.823 315.036 352.833 315.036H341.953C340.964 315.036 340.156 314.229 340.156 313.239V279.307C340.156 278.318 340.964 277.51 341.953 277.51ZM347.391 257.198C348.974 257.198 350.411 257.818 351.474 258.823L366.229 250.682C366.156 250.302 366.115 249.917 366.115 249.515C366.115 246.239 368.771 243.588 372.047 243.588C375.151 243.588 377.693 245.969 377.958 249L391.573 252.031C392.599 250.265 394.51 249.078 396.703 249.078C398.12 249.078 399.422 249.573 400.443 250.406L415.646 240.39C415.505 239.875 415.427 239.333 415.427 238.771C415.427 235.495 418.083 232.838 421.359 232.838C424.635 232.838 427.292 235.495 427.292 238.771C427.292 242.047 424.635 244.703 421.359 244.703C419.938 244.703 418.641 244.208 417.62 243.38L402.411 253.39C402.557 253.906 402.635 254.448 402.635 255.01C402.635 258.286 399.979 260.943 396.703 260.943C393.599 260.943 391.057 258.562 390.792 255.526L377.177 252.495C376.151 254.26 374.24 255.448 372.047 255.448C370.464 255.448 369.026 254.833 367.964 253.823L353.208 261.969C353.286 262.344 353.323 262.729 353.323 263.13C353.323 266.406 350.667 269.062 347.391 269.062C344.115 269.062 341.458 266.406 341.458 263.13C341.458 259.854 344.115 257.198 347.391 257.198ZM415.917 253.156C414.927 253.156 414.12 253.963 414.12 254.953V313.239C414.12 314.229 414.927 315.036 415.917 315.036H426.797C427.786 315.036 428.594 314.229 428.594 313.239V254.953C428.594 253.963 427.786 253.156 426.797 253.156H415.917ZM391.26 269.39C394.891 269.39 398.516 269.39 402.141 269.39C403.135 269.39 403.943 270.198 403.943 271.187C403.943 285.203 403.943 299.219 403.943 313.239C403.943 314.229 403.135 315.036 402.141 315.036C398.516 315.036 394.891 315.036 391.26 315.036C390.271 315.036 389.464 314.229 389.464 313.239C389.464 299.219 389.464 285.203 389.464 271.187C389.464 270.198 390.271 269.39 391.26 269.39ZM366.609 263.901C365.615 263.901 364.807 264.708 364.807 265.698C364.807 281.542 364.807 297.39 364.807 313.239C364.807 314.229 365.615 315.036 366.609 315.036C370.234 315.036 373.859 315.036 377.49 315.036C378.479 315.036 379.286 314.229 379.286 313.239C379.286 297.39 379.286 281.542 379.286 265.698C379.286 264.708 378.479 263.901 377.49 263.901C373.859 263.901 370.234 263.901 366.609 263.901Z" fill="white"/>
</g>
</svg>
