<svg width="44" height="51" viewBox="0 0 44 51" fill="none" xmlns="http://www.w3.org/2000/svg">
<mask id="mask0_207_15" style="mask-type:luminance" maskUnits="userSpaceOnUse" x="0" y="17" width="17" height="28">
<path d="M0.0878906 17H16.9993V45H0.0878906V17Z" fill="white"/>
</mask>
<g mask="url(#mask0_207_15)">
<path d="M16.9896 19.6198V17.7605C8.52083 16.5469 0.78125 23.2761 0.78125 32.0677C0.78125 36.9584 3.19792 41.2813 6.88021 43.8959C4.41146 41.2292 3.04167 37.7136 3.04688 34.0625C3.04688 26.2084 9.27083 19.8021 16.9896 19.6198Z" fill="#87F1E9"/>
</g>
<mask id="mask1_207_15" style="mask-type:luminance" maskUnits="userSpaceOnUse" x="11" y="0" width="30" height="41">
<path d="M11.666 0.135498H40.9993V41.0001H11.666V0.135498Z" fill="white"/>
</mask>
<g mask="url(#mask1_207_15)">
<path d="M17.3216 40.6615C20.8372 40.6615 23.7018 37.8333 23.832 34.3073L23.8477 2.84896H29.5247C29.4049 2.19271 29.3424 1.52604 29.3424 0.859375H21.582L21.5716 32.3177C21.3945 37.1719 16.2435 40.1562 12.0352 37.9062C13.2591 39.6354 15.2279 40.6562 17.3216 40.6615ZM40.1393 13.526V11.7812C38.0508 11.7812 36.0039 11.1667 34.2591 10.0104C35.7904 11.7969 37.8529 13.0313 40.1393 13.526Z" fill="#87F1E9"/>
</g>
<path d="M34.2598 10.0103C32.5462 8.02596 31.6035 5.48429 31.6035 2.84888H29.5254C30.0723 5.79158 31.7806 8.38013 34.2598 10.0103ZM15.0618 25.4687C11.4629 25.4739 8.54622 28.427 8.54102 32.0676C8.54102 34.5208 9.88997 36.7708 12.0358 37.9114C11.2337 36.7916 10.8014 35.4426 10.8014 34.0624C10.8066 30.4166 13.7233 27.4635 17.3223 27.4635C17.9941 27.4635 18.64 27.5728 19.2493 27.7655V19.7551C18.3691 19.6249 17.7077 19.6041 16.9889 19.6197V25.776C16.3639 25.5728 15.7181 25.4739 15.0618 25.4687Z" fill="#DA004F"/>
<mask id="mask2_207_15" style="mask-type:luminance" maskUnits="userSpaceOnUse" x="6" y="13" width="38" height="36">
<path d="M6.33398 13H43.0892V49H6.33398V13Z" fill="white"/>
</mask>
<g mask="url(#mask2_207_15)">
<path d="M40.1413 13.5261V19.6303C36.1152 19.6303 32.3861 18.3282 29.3444 16.1147V32.0678C29.3444 40.0365 22.9382 46.5157 15.0632 46.5157C12.0215 46.5157 9.19857 45.547 6.88086 43.8959C9.57878 46.8386 13.36 48.5105 17.3236 48.5105C25.1986 48.5105 31.6048 42.0261 31.6048 34.0626V18.1095C34.7507 20.3959 38.5267 21.6251 42.4017 21.6199V13.7709C41.6257 13.7709 40.8704 13.6824 40.1361 13.5261" fill="#DA004F"/>
</g>
<path d="M29.3438 32.0676V16.1145C32.4896 18.4062 36.2656 19.6353 40.1354 19.6301V13.526C37.8542 13.0312 35.7917 11.7968 34.2604 10.0103C31.7813 8.38013 30.0677 5.79158 29.526 2.84888H23.8438L23.8333 34.3072C23.7031 37.8333 20.8385 40.6614 17.3229 40.6614C15.2292 40.6562 13.2604 39.6353 12.0365 37.9114C9.89062 36.7708 8.54167 34.5208 8.54167 32.0676C8.54688 27.6353 12.8021 24.4426 16.9896 25.776V19.6197C9.27083 19.802 3.04688 26.2083 3.04688 34.0624C3.04688 37.8593 4.50521 41.3176 6.88021 43.8958C9.27604 45.6041 12.1354 46.5208 15.0625 46.5155C22.9375 46.5155 29.3438 40.0364 29.3438 32.0676Z" fill="#1C1C1C"/>
<mask id="mask3_207_15" style="mask-type:luminance" maskUnits="userSpaceOnUse" x="0" y="15" width="19" height="30">
<path d="M0.0878906 15.6667H18.3327V45.0001H0.0878906V15.6667Z" fill="white"/>
</mask>
<g mask="url(#mask3_207_15)">
<path d="M6.47852 44.4739C2.47852 41.6301 0.0878906 36.9947 0.0878906 32.0676C0.0878906 22.8645 8.18685 15.7916 17.0827 17.0676C17.4264 17.1197 17.6816 17.4114 17.6816 17.7603V19.6197C17.6816 19.9999 17.3796 20.3124 17.0046 20.3228C9.68685 20.4947 3.73893 26.6614 3.73893 34.0624C3.73372 37.5468 5.0306 40.8697 7.38477 43.4166C7.62956 43.6822 7.63477 44.0885 7.40039 44.3593C7.17122 44.6301 6.77018 44.677 6.47852 44.4739ZM1.47331 32.0676C1.47331 34.2343 1.98372 36.3385 2.92643 38.2291C2.54622 36.8853 2.34831 35.4843 2.34831 34.0624C2.34831 26.0728 8.49414 19.4895 16.2962 18.953V18.3853C8.43164 17.6197 1.47331 23.9478 1.47331 32.0676Z" fill="black"/>
</g>
<mask id="mask4_207_15" style="mask-type:luminance" maskUnits="userSpaceOnUse" x="10" y="0" width="31" height="43">
<path d="M10.334 0.135498H41.0007V42.3334H10.334V0.135498Z" fill="white"/>
</mask>
<g mask="url(#mask4_207_15)">
<path d="M17.323 41.3594C15.0105 41.3594 12.823 40.2188 11.4741 38.3177C11.2866 38.0521 11.3022 37.6927 11.5157 37.4479C11.7293 37.2031 12.0782 37.1354 12.3595 37.2865C13.1876 37.7292 14.1251 37.9635 15.0626 37.9635C18.2032 37.9635 20.7553 35.4792 20.8803 32.3021L20.8907 0.859375C20.8907 0.46875 21.2032 0.15625 21.5835 0.15625H29.3439C29.7293 0.15625 30.0366 0.46875 30.0366 0.859375C30.0366 1.47917 30.0939 2.10938 30.2085 2.71875C30.2866 3.15104 29.9637 3.55208 29.5262 3.55208H24.5418C24.5262 35.3073 24.5262 34.3125 24.5262 34.3333C24.3803 38.276 21.2189 41.3594 17.323 41.3594ZM14.7866 39.3646C18.5105 41.1979 22.9741 38.6042 23.1407 34.2917L23.1564 2.84896C23.1564 2.46354 23.4637 2.14583 23.8491 2.14583H28.7241C28.7032 1.95313 28.6824 1.75521 28.672 1.55729H22.2762C22.2657 33.3177 22.2657 32.3229 22.2657 32.3438C22.1147 36.4063 18.7657 39.5208 14.7866 39.3646ZM39.9689 14.2083C37.5626 13.6771 35.3491 12.3542 33.7345 10.474C33.5105 10.2083 33.5105 9.8125 33.7397 9.55208C33.9637 9.28646 34.3491 9.23438 34.6407 9.42708C36.2762 10.5052 38.172 11.0781 40.1251 11.0781C40.5574 11.0885 40.8335 11.4219 40.8335 11.7812C40.8282 13.7187 40.8387 13.5781 40.8178 13.6771C40.7397 14.0365 40.3595 14.3073 39.9689 14.2083ZM38.8335 12.4062C39.0366 12.4844 39.2397 12.5573 39.4428 12.6198V12.4583C39.2397 12.4479 39.0366 12.4323 38.8335 12.4062Z" fill="black"/>
</g>
<path d="M11.7142 38.5313C9.33398 37.2657 7.84961 34.7917 7.84961 32.0678C7.85482 27.5209 11.9434 24.0938 16.2975 24.8803V19.6199C16.2975 19.2397 16.5996 18.9272 16.9746 18.9167C17.7715 18.9011 18.4746 18.9324 19.3496 19.0574C19.6882 19.1095 19.9434 19.4063 19.9434 19.7553V27.7657C19.9434 27.9897 19.8392 28.2032 19.6621 28.3334C19.4798 28.4636 19.2507 28.5053 19.0423 28.4376C15.2715 27.2345 11.5007 30.1459 11.4954 34.0626C11.4954 35.3022 11.8757 36.4897 12.5996 37.5001C12.7871 37.7605 12.7715 38.1199 12.5632 38.3699C12.3496 38.6147 12.0007 38.6824 11.7142 38.5313ZM15.0632 26.172C10.3913 26.1772 7.65169 31.4792 10.2246 35.3542C9.33398 30.3282 13.709 25.9897 18.5579 26.8751V20.3751C18.2663 20.349 17.9746 20.3282 17.6829 20.3178V25.7761C17.6829 26.0001 17.5788 26.2084 17.3965 26.3438C17.2194 26.474 16.9902 26.5105 16.7767 26.4428C16.2246 26.2657 15.6465 26.172 15.0632 26.172ZM33.8809 10.599C31.2559 8.86987 29.4225 6.09383 28.8444 2.97925C28.7663 2.55216 29.0944 2.15112 29.5267 2.15112H31.6048C31.9902 2.15112 32.2975 2.46362 32.2975 2.85425C32.2975 5.31779 33.1829 7.69279 34.7819 9.54696C35.0111 9.81258 35.0111 10.2084 34.7819 10.4688C34.5579 10.7345 34.1725 10.7917 33.8809 10.599ZM30.3965 3.55216C30.6048 4.31258 30.9017 5.04696 31.2715 5.73446C31.0944 5.02612 30.9798 4.29175 30.9329 3.55216H30.3965Z" fill="black"/>
<mask id="mask5_207_15" style="mask-type:luminance" maskUnits="userSpaceOnUse" x="5" y="11" width="39" height="40">
<path d="M5 11.6667H43.0885V50.1355H5V11.6667Z" fill="white"/>
</mask>
<g mask="url(#mask5_207_15)">
<path d="M6.37049 44.3751C6.13091 44.1095 6.1257 43.7084 6.36007 43.4376C6.58924 43.1667 6.99028 43.1199 7.27674 43.323C9.57362 44.9532 12.2663 45.8178 15.0632 45.8178C22.558 45.8178 28.6517 39.6511 28.6517 32.0678V16.1147C28.6517 15.8542 28.7976 15.6147 29.0267 15.4949C29.2611 15.3751 29.5372 15.3959 29.7507 15.547C32.6049 17.6199 35.9434 18.7813 39.4434 18.9115V13.5574C39.4278 13.099 39.8392 12.7449 40.282 12.8386C40.9799 12.9897 41.6934 13.0678 42.4017 13.0678C42.782 13.0678 43.0945 13.3803 43.0945 13.7709V21.6199C43.0945 21.9845 42.8184 22.323 42.3757 22.323C38.7872 22.323 35.3288 21.323 32.2976 19.422V34.0626C32.2976 42.4167 25.584 49.2084 17.3236 49.2084C17.2299 49.1876 11.0788 49.5105 6.37049 44.3751ZM12.9382 47.0678C21.7403 50.1199 30.9122 43.4584 30.9122 34.0626C30.9174 17.047 30.8965 18.099 30.9278 17.9532C30.6309 17.7865 30.3288 17.6147 30.0372 17.4272V32.0678C30.0372 41.2397 21.9851 48.3751 12.9382 47.0678ZM36.9382 20.0626C38.4694 20.5626 40.0736 20.8438 41.709 20.9063V14.448C41.4174 14.4324 41.1205 14.4011 40.834 14.3595V19.6303C40.834 20.0157 40.5215 20.3282 40.1413 20.3282C39.058 20.3282 37.9903 20.2397 36.9382 20.0626Z" fill="black"/>
</g>
<path d="M6.47982 44.474C6.44336 44.4428 6.4069 44.4115 6.37044 44.3751C3.7819 41.5574 2.34961 37.8959 2.34961 34.0626C2.34961 25.823 8.87044 19.1095 16.9746 18.922C17.3757 18.9115 17.6829 19.2397 17.6829 19.6199V25.7761C17.6829 26.0001 17.5788 26.2084 17.3965 26.3438C17.2194 26.474 16.9902 26.5105 16.7819 26.4428C16.2142 26.2657 15.6361 26.172 15.0632 26.172C11.8548 26.1772 9.24024 28.823 9.23503 32.0678C9.24024 34.2657 10.4329 36.2657 12.36 37.2865C12.4538 37.3386 12.5371 37.4115 12.5996 37.5001C13.6934 39.0365 15.459 39.9584 17.3236 39.9584C20.4642 39.9584 23.0163 37.474 23.1413 34.297L23.1517 2.84904C23.1517 2.46362 23.4642 2.15112 23.8496 2.15112H29.5267C29.86 2.15112 30.1465 2.39071 30.209 2.72404C30.7142 5.46362 32.3288 7.90112 34.6413 9.42196C34.6934 9.45842 34.7402 9.50008 34.7819 9.55216C36.209 11.2084 38.1621 12.3803 40.2871 12.8438C40.6048 12.9115 40.834 13.198 40.834 13.5261V19.6303C40.834 19.9949 40.5527 20.3282 40.1152 20.3282C36.5215 20.3282 33.0632 19.3334 30.0371 17.4272V32.0678C30.0371 40.422 23.3184 47.2188 15.0632 47.2188C11.86 47.2188 8.91732 46.2084 6.47982 44.474ZM7.33919 43.3647C9.61524 44.9688 12.2767 45.8126 15.0527 45.8126C22.584 45.8126 28.6517 39.6251 28.6517 32.0678V16.1147C28.6517 15.547 29.2923 15.2136 29.7507 15.547C32.6048 17.6251 35.9434 18.7813 39.4434 18.9167V14.0782C37.2767 13.4897 35.2923 12.2501 33.8027 10.547C31.3809 8.92196 29.6413 6.40112 28.9642 3.55216H24.5423L24.5267 34.3074C24.5267 34.3178 24.5267 34.3282 24.5267 34.3334C24.3809 38.2761 21.2194 41.3595 17.3236 41.3595C15.0632 41.3595 12.9277 40.2761 11.5736 38.4532C9.27669 37.1667 7.84961 34.7345 7.84961 32.0678C7.85482 27.5209 11.9538 24.0886 16.2975 24.8803V20.3595C9.30794 20.8959 3.74023 26.9011 3.74023 34.0626C3.74023 37.5157 5.01628 40.8178 7.33919 43.3647Z" fill="black"/>
</svg>
