<svg width="77" height="79" viewBox="0 0 77 79" fill="none" xmlns="http://www.w3.org/2000/svg">
<mask id="mask0_181_13756" style="mask-type:luminance" maskUnits="userSpaceOnUse" x="14" y="12" width="55" height="55">
<path d="M14.4473 12.7915H68.4473V66.7915H14.4473V12.7915Z" fill="white"/>
</mask>
<g mask="url(#mask0_181_13756)">
<path d="M67.9115 18.6301H63.9688C63.9688 18.3124 63.849 17.9947 63.6042 17.7499C63.3698 17.5156 63.0625 17.3958 62.7552 17.3854V13.4739C62.7552 13.2187 62.6042 12.9947 62.3698 12.8958C62.1354 12.7968 61.8646 12.8489 61.6875 13.026L57.4375 17.2343C57.3177 17.3541 57.25 17.5156 57.25 17.6822L57.2604 22.3229L55.3177 24.2656C50.9792 20.3645 45.25 17.9895 38.9688 17.9895C25.4688 17.9895 14.4844 28.9739 14.4844 42.4791C14.4844 55.9791 25.4688 66.9635 38.9688 66.9635C52.474 66.9635 63.4583 55.9791 63.4583 42.4791C63.4583 36.151 61.0469 30.3801 57.099 26.0312L59.0365 24.0885L63.6719 24.0781C63.8385 24.0781 63.9948 24.0156 64.1094 23.8958L68.349 19.7031C68.5313 19.5208 68.5885 19.2551 68.4896 19.0208C68.3958 18.7812 68.1667 18.6301 67.9115 18.6301ZM59.0729 42.4791C59.0729 53.5624 50.0521 62.5781 38.9688 62.5781C27.8854 62.5781 18.8698 53.5624 18.8698 42.4791C18.8698 31.3906 27.8854 22.3749 38.9688 22.3749C44.0365 22.3749 48.6719 24.2656 52.2135 27.3697L48.4375 31.1458C45.8698 28.9999 42.5677 27.7031 38.9688 27.7031C30.8229 27.7031 24.1979 34.3281 24.1979 42.4791C24.1979 50.6249 30.8229 57.2499 38.9688 57.2499C47.1146 57.2499 53.7448 50.6249 53.7448 42.4791C53.7448 38.8281 52.4167 35.4895 50.2188 32.9114L53.9896 29.1354C57.151 32.6874 59.0729 37.3593 59.0729 42.4791ZM38.9688 48.1614C42.1042 48.1614 44.6563 45.6145 44.6563 42.4791C44.6563 41.3385 44.3177 40.2812 43.7396 39.3906L47.5469 35.5833C49.0677 37.4739 49.9844 39.8697 49.9844 42.4791C49.9844 48.552 45.0417 53.4895 38.9688 53.4895C32.8958 53.4895 27.9583 48.552 27.9583 42.4791C27.9583 36.401 32.8958 31.4635 38.9688 31.4635C41.5313 31.4635 43.8906 32.3489 45.7604 33.8229L41.9479 37.6406C41.0781 37.1041 40.0625 36.7916 38.9688 36.7916C35.8333 36.7916 33.2813 39.3385 33.2813 42.4791C33.2813 45.6145 35.8333 48.1614 38.9688 48.1614Z" fill="white"/>
</g>
<path d="M38.6042 78.1299C31.5885 78.1299 25.1875 76.4841 19.3958 73.1924C13.6042 69.9007 9.02604 65.3122 5.66667 59.4216C2.30208 53.5205 0.625 46.8799 0.625 39.5049C0.625 32.1299 2.30208 25.4997 5.66667 19.6091C9.02604 13.708 13.6042 9.10905 19.3958 5.81738C25.1875 2.52572 31.5885 0.879883 38.6042 0.879883C45.6979 0.879883 52.1354 2.52572 57.9167 5.81738C63.7083 9.10905 68.2604 13.6872 71.5833 19.5466C74.9167 25.4111 76.5833 32.0622 76.5833 39.5049C76.5833 46.9632 74.9167 53.6247 71.5833 59.4841C68.2604 65.333 63.7083 69.9007 57.9167 73.1924C52.1354 76.4841 45.6979 78.1299 38.6042 78.1299ZM38.6042 69.5674C43.8802 69.5674 48.6354 68.3382 52.875 65.8799C57.1094 63.4216 60.4375 59.9163 62.8542 55.3591C65.2813 50.7913 66.5 45.5049 66.5 39.5049C66.5 33.4372 65.2813 28.1403 62.8542 23.6091C60.4375 19.083 57.1302 15.5882 52.9375 13.1299C48.7396 10.6715 43.9635 9.44238 38.6042 9.44238C33.2552 9.44238 28.4792 10.6715 24.2708 13.1299C20.0729 15.5882 16.7604 19.083 14.3333 23.6091C11.9167 28.1403 10.7083 33.4372 10.7083 39.5049C10.7083 45.5049 11.9167 50.7913 14.3333 55.3591C16.7604 59.9163 20.0937 63.4216 24.3333 65.8799C28.5677 68.3382 33.3229 69.5674 38.6042 69.5674Z" fill="white"/>
</svg>
