<svg width="51" height="51" viewBox="0 0 51 51" fill="none" xmlns="http://www.w3.org/2000/svg">
<path d="M36.5371 20.4896C36.5371 20.4896 36.9173 28.4896 30.8184 33.4271C21.7246 40.8125 11.9121 34.8178 11.9121 34.8178C11.9121 34.8178 14.2975 34.8594 16.4069 34.2917C18.5215 33.724 20.0163 32.3698 20.0163 32.3698C20.0163 32.3698 17.7194 31.8855 16.5371 31.0209C15.334 30.1563 14.8913 28.4896 14.8913 28.4896C14.8913 28.4896 15.6725 28.5521 16.1777 28.5521C16.6829 28.5313 17.2975 28.2969 17.2975 28.2969C17.2975 28.2969 15.6517 28.1094 14.11 26.3803C12.9069 25.0261 12.9902 22.7709 12.9902 22.7709C12.9902 22.7709 13.709 23.1928 14.11 23.2969C14.4902 23.4011 15.2298 23.4011 15.2298 23.4011C15.2298 23.4011 13.7923 22.5365 13.1361 20.3438C12.5059 18.1303 13.7298 15.8907 13.7298 15.8907C13.7298 15.8907 15.8392 18.4636 19.0267 20.1303C22.2142 21.8021 25.209 21.7344 25.209 21.7344C25.209 21.7344 24.7663 20.4063 25.5267 18.4636C26.2819 16.5053 28.0163 15.1094 30.6309 14.9011C33.2454 14.6875 34.9121 16.6719 34.9121 16.6719C34.9121 16.6719 35.7142 16.5261 36.6465 16.1875C37.5736 15.849 38.4798 15.4271 38.4798 15.4271C38.4798 15.4271 38.1621 16.4167 37.5319 17.198C36.8965 17.9792 36.1829 18.4428 36.1829 18.4428C36.1829 18.4428 37.0059 18.3803 37.8288 18.1511C38.6517 17.9167 39.1152 17.6875 39.1152 17.6875C38.2038 19.2865 36.5371 20.4896 36.5371 20.4896Z" fill="#38B6FF"/>
<mask id="mask0_207_13" style="mask-type:luminance" maskUnits="userSpaceOnUse" x="0" y="0" width="51" height="51">
<path d="M0.478516 0.953125H50.4785V50.9531H0.478516V0.953125Z" fill="white"/>
</mask>
<g mask="url(#mask0_207_13)">
<path d="M25.5254 51.0469C11.7233 51.0469 0.478516 39.8177 0.478516 26C0.478516 12.1771 11.7233 0.953125 25.5254 0.953125C39.3223 0.953125 50.5723 12.1979 50.5723 26C50.5723 39.7969 39.3431 51.0469 25.5254 51.0469ZM25.5254 2.32292C12.4629 2.32292 1.84831 12.9375 1.84831 26C1.84831 39.0625 12.4629 49.6719 25.5254 49.6719C38.5827 49.6719 49.1973 39.0625 49.1973 26C49.1973 12.9375 38.5827 2.32292 25.5254 2.32292Z" fill="#38B6FF"/>
</g>
</svg>
