<svg width="46" height="46" viewBox="0 0 46 46" fill="none" xmlns="http://www.w3.org/2000/svg">
<mask id="mask0_207_16" style="mask-type:luminance" maskUnits="userSpaceOnUse" x="0" y="0" width="46" height="46">
<path d="M0.509766 0.385498H45.5098V45.3855H0.509766V0.385498Z" fill="white"/>
</mask>
<g mask="url(#mask0_207_16)">
<path d="M45.5098 22.8855C45.5098 23.6251 45.4733 24.3595 45.4056 25.0938C45.3327 25.823 45.2233 26.5522 45.0775 27.2761C44.9369 28.0001 44.7546 28.7136 44.541 29.4167C44.3275 30.1251 44.0827 30.8178 43.7962 31.4949C43.515 32.1772 43.2025 32.8438 42.8535 33.4949C42.5098 34.1459 42.1296 34.7761 41.7181 35.3855C41.3119 36.0001 40.8691 36.5938 40.4056 37.1615C39.9368 37.7292 39.4421 38.2761 38.9212 38.797C38.4004 39.3178 37.8535 39.8126 37.2858 40.2813C36.7129 40.7501 36.1244 41.1876 35.5098 41.5938C34.9004 42.0053 34.265 42.3855 33.6191 42.7292C32.9681 43.0782 32.3014 43.3907 31.6191 43.6772C30.9421 43.9584 30.2493 44.2032 29.541 44.4167C28.8379 44.6303 28.1243 44.8126 27.4004 44.9532C26.6764 45.099 25.9473 45.2084 25.2181 45.2813C24.4837 45.349 23.7493 45.3855 23.0098 45.3855C22.2754 45.3855 21.5358 45.349 20.8066 45.2813C20.0723 45.2084 19.3431 45.099 18.6191 44.9532C17.8952 44.8126 17.1816 44.6303 16.4785 44.4167C15.7754 44.2032 15.0827 43.9584 14.4004 43.6772C13.7181 43.3907 13.0514 43.0782 12.4056 42.7292C11.7546 42.3855 11.1243 42.0053 10.5098 41.5938C9.89518 41.1876 9.30664 40.7501 8.73372 40.2813C8.16602 39.8126 7.61914 39.3178 7.09831 38.797C6.57747 38.2761 6.08268 37.7292 5.61393 37.1615C5.15039 36.5938 4.71289 36.0001 4.30143 35.3855C3.88998 34.7761 3.51497 34.1459 3.16602 33.4949C2.81706 32.8438 2.50456 32.1772 2.22331 31.4949C1.94206 30.8178 1.69206 30.1251 1.47852 29.4167C1.26497 28.7136 1.08268 28.0001 0.942057 27.2761C0.796224 26.5522 0.692057 25.823 0.619141 25.0938C0.546223 24.3595 0.509766 23.6251 0.509766 22.8855C0.509766 22.1511 0.546223 21.4167 0.619141 20.6824C0.692057 19.948 0.796224 19.2188 0.942057 18.4949C1.08268 17.7761 1.26497 17.0574 1.47852 16.3542C1.69206 15.6511 1.94206 14.9584 2.22331 14.2761C2.50456 13.5938 2.81706 12.9272 3.16602 12.2813C3.51497 11.6303 3.88998 11.0001 4.30143 10.3855C4.71289 9.77092 5.15039 9.18237 5.61393 8.60946C6.08268 8.04175 6.57747 7.49487 7.09831 6.97404C7.61914 6.45321 8.16602 5.95841 8.73372 5.49487C9.30664 5.02612 9.89518 4.58862 10.5098 4.17716C11.1243 3.76571 11.7546 3.39071 12.4056 3.04175C13.0514 2.69279 13.7181 2.38029 14.4004 2.09904C15.0827 1.81779 15.7754 1.56779 16.4785 1.35425C17.1816 1.14071 17.8952 0.963623 18.6191 0.81779C19.3431 0.671956 20.0723 0.567789 20.8066 0.494873C21.5358 0.421956 22.2754 0.385498 23.0098 0.385498C23.7493 0.385498 24.4837 0.421956 25.2181 0.494873C25.9473 0.567789 26.6764 0.671956 27.4004 0.81779C28.1243 0.963623 28.8379 1.14071 29.541 1.35425C30.2493 1.56779 30.9421 1.81779 31.6191 2.09904C32.3014 2.38029 32.9681 2.69279 33.6191 3.04175C34.265 3.39071 34.9004 3.76571 35.5098 4.17716C36.1244 4.58862 36.7129 5.02612 37.2858 5.49487C37.8535 5.95841 38.4004 6.45321 38.9212 6.97404C39.4421 7.49487 39.9368 8.04175 40.4056 8.60946C40.8691 9.18237 41.3119 9.77092 41.7181 10.3855C42.1296 11.0001 42.5098 11.6303 42.8535 12.2813C43.2025 12.9272 43.515 13.5938 43.7962 14.2761C44.0827 14.9584 44.3275 15.6511 44.541 16.3542C44.7546 17.0574 44.9369 17.7761 45.0775 18.4949C45.2233 19.2188 45.3327 19.948 45.4056 20.6824C45.4733 21.4167 45.5098 22.1511 45.5098 22.8855Z" fill="#0FB73B"/>
</g>
<path d="M23.0098 39.9167C20.7129 39.9167 18.4785 39.4688 16.3796 38.5782C14.3535 37.7188 12.5306 36.4949 10.9681 34.9272C9.4056 33.3647 8.17643 31.547 7.31706 29.5157C6.42643 27.4167 5.97852 25.1876 5.97852 22.8855C5.97852 20.5886 6.42643 18.3595 7.31706 16.2553C8.17643 14.2292 9.4056 12.4063 10.9681 10.8438C12.5306 9.28133 14.3535 8.05216 16.3796 7.19279C18.4785 6.30737 20.7129 5.85425 23.0098 5.85425C25.3066 5.85425 27.541 6.30737 29.64 7.19279C31.666 8.05216 33.4889 9.28133 35.0514 10.8438C36.6191 12.4063 37.8431 14.2292 38.7025 16.2553C39.5931 18.3595 40.041 20.5886 40.041 22.8855C40.041 25.1876 39.5931 27.4167 38.7025 29.5157C37.8431 31.547 36.6191 33.3647 35.0514 34.9272C33.4889 36.4949 31.666 37.7188 29.64 38.5782C27.541 39.4688 25.3066 39.9167 23.0098 39.9167ZM23.0098 8.14071C19.0723 8.14071 15.3691 9.67196 12.5827 12.4584C9.79622 15.2449 8.26497 18.948 8.26497 22.8855C8.26497 26.823 9.79622 30.5261 12.5827 33.3126C15.3691 36.099 19.0723 37.6303 23.0098 37.6303C26.9473 37.6303 30.6504 36.099 33.4368 33.3126C36.2233 30.5261 37.7546 26.823 37.7546 22.8855C37.7546 18.948 36.2233 15.2449 33.4368 12.4584C30.6504 9.67196 26.9473 8.14071 23.0098 8.14071Z" fill="white"/>
<path d="M30.4692 29.5313L30.641 29.3594C31.4952 28.5104 31.3806 27.1042 30.4067 26.4011L28.9692 25.3646C28.0577 24.7083 26.7973 24.8073 26.0004 25.6042L25.8077 25.7969C25.2712 26.3333 24.4431 26.4531 23.7765 26.0886C22.1202 25.1771 20.8025 23.849 19.8181 22.099C19.4379 21.4323 19.5525 20.5938 20.0942 20.0469L20.2712 19.8698C21.0681 19.0729 21.1671 17.8177 20.5056 16.9063L19.4744 15.4688C18.7712 14.4948 17.3598 14.3802 16.5108 15.2292L16.391 15.3542C14.6254 17.1146 14.2973 19.8594 15.5994 21.9844C17.7296 25.4688 20.464 28.2604 23.8285 30.3177C25.9587 31.6198 28.7035 31.3021 30.4692 29.5313Z" fill="white"/>
</svg>
